ISO-10303-21;
HEADER;
/* Generated by software containing ST-Developer
 * from STEP Tools, Inc. (www.steptools.com) 
 */

FILE_DESCRIPTION(
/* description */ (''),
/* implementation_level */ '2;1');

FILE_NAME(
/* name */ 'center plate x2.step',
/* time_stamp */ '2025-06-28T00:22:24-07:00',
/* author */ (''),
/* organization */ (''),
/* preprocessor_version */ 'ST-DEVELOPER v20.1',
/* originating_system */ 'Autodesk Translation Framework v14.10.0.0',
/* authorisation */ '');

FILE_SCHEMA (('AUTOMOTIVE_DESIGN { 1 0 10303 214 3 1 1 }'));
ENDSEC;

DATA;
#10=MECHANICAL_DESIGN_GEOMETRIC_PRESENTATION_REPRESENTATION('',(#13),#887);
#11=SHAPE_REPRESENTATION_RELATIONSHIP('SRR','None',#894,#12);
#12=ADVANCED_BREP_SHAPE_REPRESENTATION('',(#14),#886);
#13=STYLED_ITEM('',(#903),#14);
#14=MANIFOLD_SOLID_BREP('Body1',#515);
#15=FACE_BOUND('',#86,.T.);
#16=FACE_BOUND('',#87,.T.);
#17=FACE_BOUND('',#88,.T.);
#18=FACE_BOUND('',#89,.T.);
#19=FACE_BOUND('',#91,.T.);
#20=FACE_BOUND('',#92,.T.);
#21=FACE_BOUND('',#93,.T.);
#22=FACE_BOUND('',#94,.T.);
#23=PLANE('',#544);
#24=PLANE('',#548);
#25=PLANE('',#552);
#26=PLANE('',#556);
#27=PLANE('',#560);
#28=PLANE('',#564);
#29=PLANE('',#568);
#30=PLANE('',#572);
#31=PLANE('',#576);
#32=PLANE('',#580);
#33=PLANE('',#581);
#34=PLANE('',#582);
#35=FACE_OUTER_BOUND('',#61,.T.);
#36=FACE_OUTER_BOUND('',#62,.T.);
#37=FACE_OUTER_BOUND('',#63,.T.);
#38=FACE_OUTER_BOUND('',#64,.T.);
#39=FACE_OUTER_BOUND('',#65,.T.);
#40=FACE_OUTER_BOUND('',#66,.T.);
#41=FACE_OUTER_BOUND('',#67,.T.);
#42=FACE_OUTER_BOUND('',#68,.T.);
#43=FACE_OUTER_BOUND('',#69,.T.);
#44=FACE_OUTER_BOUND('',#70,.T.);
#45=FACE_OUTER_BOUND('',#71,.T.);
#46=FACE_OUTER_BOUND('',#72,.T.);
#47=FACE_OUTER_BOUND('',#73,.T.);
#48=FACE_OUTER_BOUND('',#74,.T.);
#49=FACE_OUTER_BOUND('',#75,.T.);
#50=FACE_OUTER_BOUND('',#76,.T.);
#51=FACE_OUTER_BOUND('',#77,.T.);
#52=FACE_OUTER_BOUND('',#78,.T.);
#53=FACE_OUTER_BOUND('',#79,.T.);
#54=FACE_OUTER_BOUND('',#80,.T.);
#55=FACE_OUTER_BOUND('',#81,.T.);
#56=FACE_OUTER_BOUND('',#82,.T.);
#57=FACE_OUTER_BOUND('',#83,.T.);
#58=FACE_OUTER_BOUND('',#84,.T.);
#59=FACE_OUTER_BOUND('',#85,.T.);
#60=FACE_OUTER_BOUND('',#90,.T.);
#61=EDGE_LOOP('',(#331,#332,#333,#334));
#62=EDGE_LOOP('',(#335,#336,#337,#338));
#63=EDGE_LOOP('',(#339,#340,#341,#342));
#64=EDGE_LOOP('',(#343,#344,#345,#346));
#65=EDGE_LOOP('',(#347,#348,#349,#350));
#66=EDGE_LOOP('',(#351,#352,#353,#354));
#67=EDGE_LOOP('',(#355,#356,#357,#358));
#68=EDGE_LOOP('',(#359,#360,#361,#362));
#69=EDGE_LOOP('',(#363,#364,#365,#366));
#70=EDGE_LOOP('',(#367,#368,#369,#370));
#71=EDGE_LOOP('',(#371,#372,#373,#374));
#72=EDGE_LOOP('',(#375,#376,#377,#378));
#73=EDGE_LOOP('',(#379,#380,#381,#382));
#74=EDGE_LOOP('',(#383,#384,#385,#386));
#75=EDGE_LOOP('',(#387,#388,#389,#390));
#76=EDGE_LOOP('',(#391,#392,#393,#394));
#77=EDGE_LOOP('',(#395,#396,#397,#398));
#78=EDGE_LOOP('',(#399,#400,#401,#402));
#79=EDGE_LOOP('',(#403,#404,#405,#406));
#80=EDGE_LOOP('',(#407,#408,#409,#410));
#81=EDGE_LOOP('',(#411,#412,#413,#414));
#82=EDGE_LOOP('',(#415,#416,#417,#418));
#83=EDGE_LOOP('',(#419,#420,#421,#422));
#84=EDGE_LOOP('',(#423,#424,#425,#426));
#85=EDGE_LOOP('',(#427,#428,#429,#430,#431,#432,#433,#434,#435,#436,#437,
#438,#439,#440,#441,#442,#443,#444,#445,#446));
#86=EDGE_LOOP('',(#447));
#87=EDGE_LOOP('',(#448));
#88=EDGE_LOOP('',(#449));
#89=EDGE_LOOP('',(#450));
#90=EDGE_LOOP('',(#451,#452,#453,#454,#455,#456,#457,#458,#459,#460,#461,
#462,#463,#464,#465,#466,#467,#468,#469,#470));
#91=EDGE_LOOP('',(#471));
#92=EDGE_LOOP('',(#472));
#93=EDGE_LOOP('',(#473));
#94=EDGE_LOOP('',(#474));
#95=LINE('',#742,#139);
#96=LINE('',#748,#140);
#97=LINE('',#754,#141);
#98=LINE('',#760,#142);
#99=LINE('',#767,#143);
#100=LINE('',#770,#144);
#101=LINE('',#773,#145);
#102=LINE('',#775,#146);
#103=LINE('',#776,#147);
#104=LINE('',#782,#148);
#105=LINE('',#785,#149);
#106=LINE('',#787,#150);
#107=LINE('',#788,#151);
#108=LINE('',#794,#152);
#109=LINE('',#797,#153);
#110=LINE('',#799,#154);
#111=LINE('',#800,#155);
#112=LINE('',#806,#156);
#113=LINE('',#809,#157);
#114=LINE('',#811,#158);
#115=LINE('',#812,#159);
#116=LINE('',#818,#160);
#117=LINE('',#821,#161);
#118=LINE('',#823,#162);
#119=LINE('',#824,#163);
#120=LINE('',#830,#164);
#121=LINE('',#833,#165);
#122=LINE('',#835,#166);
#123=LINE('',#836,#167);
#124=LINE('',#842,#168);
#125=LINE('',#845,#169);
#126=LINE('',#847,#170);
#127=LINE('',#848,#171);
#128=LINE('',#854,#172);
#129=LINE('',#857,#173);
#130=LINE('',#859,#174);
#131=LINE('',#860,#175);
#132=LINE('',#866,#176);
#133=LINE('',#869,#177);
#134=LINE('',#871,#178);
#135=LINE('',#872,#179);
#136=LINE('',#878,#180);
#137=LINE('',#880,#181);
#138=LINE('',#881,#182);
#139=VECTOR('',#589,2.55000000000001);
#140=VECTOR('',#596,2.54999999999999);
#141=VECTOR('',#603,2.55);
#142=VECTOR('',#610,2.55);
#143=VECTOR('',#617,10.);
#144=VECTOR('',#620,10.);
#145=VECTOR('',#623,10.);
#146=VECTOR('',#624,10.);
#147=VECTOR('',#625,10.);
#148=VECTOR('',#632,10.);
#149=VECTOR('',#635,10.);
#150=VECTOR('',#636,10.);
#151=VECTOR('',#637,10.);
#152=VECTOR('',#644,10.);
#153=VECTOR('',#647,10.);
#154=VECTOR('',#648,10.);
#155=VECTOR('',#649,10.);
#156=VECTOR('',#656,10.);
#157=VECTOR('',#659,10.);
#158=VECTOR('',#660,10.);
#159=VECTOR('',#661,10.);
#160=VECTOR('',#668,10.);
#161=VECTOR('',#671,10.);
#162=VECTOR('',#672,10.);
#163=VECTOR('',#673,10.);
#164=VECTOR('',#680,10.);
#165=VECTOR('',#683,10.);
#166=VECTOR('',#684,10.);
#167=VECTOR('',#685,10.);
#168=VECTOR('',#692,10.);
#169=VECTOR('',#695,10.);
#170=VECTOR('',#696,10.);
#171=VECTOR('',#697,10.);
#172=VECTOR('',#704,10.);
#173=VECTOR('',#707,10.);
#174=VECTOR('',#708,10.);
#175=VECTOR('',#709,10.);
#176=VECTOR('',#716,10.);
#177=VECTOR('',#719,10.);
#178=VECTOR('',#720,10.);
#179=VECTOR('',#721,10.);
#180=VECTOR('',#728,10.);
#181=VECTOR('',#731,10.);
#182=VECTOR('',#732,10.);
#183=CIRCLE('',#530,2.55000000000001);
#184=CIRCLE('',#531,2.55000000000001);
#185=CIRCLE('',#533,2.54999999999999);
#186=CIRCLE('',#534,2.54999999999999);
#187=CIRCLE('',#536,2.55);
#188=CIRCLE('',#537,2.55);
#189=CIRCLE('',#539,2.55);
#190=CIRCLE('',#540,2.55);
#191=CIRCLE('',#542,4.99999999999998);
#192=CIRCLE('',#543,4.99999999999998);
#193=CIRCLE('',#546,5.0000000000001);
#194=CIRCLE('',#547,5.0000000000001);
#195=CIRCLE('',#550,4.99999999999999);
#196=CIRCLE('',#551,4.99999999999999);
#197=CIRCLE('',#554,5.00000000000002);
#198=CIRCLE('',#555,5.00000000000002);
#199=CIRCLE('',#558,5.00000000000002);
#200=CIRCLE('',#559,5.00000000000002);
#201=CIRCLE('',#562,5.);
#202=CIRCLE('',#563,5.);
#203=CIRCLE('',#566,5.);
#204=CIRCLE('',#567,5.);
#205=CIRCLE('',#570,5.);
#206=CIRCLE('',#571,5.);
#207=CIRCLE('',#574,4.99999999999991);
#208=CIRCLE('',#575,4.99999999999991);
#209=CIRCLE('',#578,5.);
#210=CIRCLE('',#579,5.);
#211=VERTEX_POINT('',#739);
#212=VERTEX_POINT('',#741);
#213=VERTEX_POINT('',#745);
#214=VERTEX_POINT('',#747);
#215=VERTEX_POINT('',#751);
#216=VERTEX_POINT('',#753);
#217=VERTEX_POINT('',#757);
#218=VERTEX_POINT('',#759);
#219=VERTEX_POINT('',#763);
#220=VERTEX_POINT('',#764);
#221=VERTEX_POINT('',#766);
#222=VERTEX_POINT('',#768);
#223=VERTEX_POINT('',#772);
#224=VERTEX_POINT('',#774);
#225=VERTEX_POINT('',#778);
#226=VERTEX_POINT('',#780);
#227=VERTEX_POINT('',#784);
#228=VERTEX_POINT('',#786);
#229=VERTEX_POINT('',#790);
#230=VERTEX_POINT('',#792);
#231=VERTEX_POINT('',#796);
#232=VERTEX_POINT('',#798);
#233=VERTEX_POINT('',#802);
#234=VERTEX_POINT('',#804);
#235=VERTEX_POINT('',#808);
#236=VERTEX_POINT('',#810);
#237=VERTEX_POINT('',#814);
#238=VERTEX_POINT('',#816);
#239=VERTEX_POINT('',#820);
#240=VERTEX_POINT('',#822);
#241=VERTEX_POINT('',#826);
#242=VERTEX_POINT('',#828);
#243=VERTEX_POINT('',#832);
#244=VERTEX_POINT('',#834);
#245=VERTEX_POINT('',#838);
#246=VERTEX_POINT('',#840);
#247=VERTEX_POINT('',#844);
#248=VERTEX_POINT('',#846);
#249=VERTEX_POINT('',#850);
#250=VERTEX_POINT('',#852);
#251=VERTEX_POINT('',#856);
#252=VERTEX_POINT('',#858);
#253=VERTEX_POINT('',#862);
#254=VERTEX_POINT('',#864);
#255=VERTEX_POINT('',#868);
#256=VERTEX_POINT('',#870);
#257=VERTEX_POINT('',#874);
#258=VERTEX_POINT('',#876);
#259=EDGE_CURVE('',#211,#211,#183,.T.);
#260=EDGE_CURVE('',#211,#212,#95,.T.);
#261=EDGE_CURVE('',#212,#212,#184,.T.);
#262=EDGE_CURVE('',#213,#213,#185,.T.);
#263=EDGE_CURVE('',#213,#214,#96,.T.);
#264=EDGE_CURVE('',#214,#214,#186,.T.);
#265=EDGE_CURVE('',#215,#215,#187,.T.);
#266=EDGE_CURVE('',#215,#216,#97,.T.);
#267=EDGE_CURVE('',#216,#216,#188,.T.);
#268=EDGE_CURVE('',#217,#217,#189,.T.);
#269=EDGE_CURVE('',#217,#218,#98,.T.);
#270=EDGE_CURVE('',#218,#218,#190,.T.);
#271=EDGE_CURVE('',#219,#220,#191,.T.);
#272=EDGE_CURVE('',#220,#221,#99,.T.);
#273=EDGE_CURVE('',#222,#221,#192,.T.);
#274=EDGE_CURVE('',#219,#222,#100,.T.);
#275=EDGE_CURVE('',#219,#223,#101,.T.);
#276=EDGE_CURVE('',#224,#222,#102,.T.);
#277=EDGE_CURVE('',#223,#224,#103,.T.);
#278=EDGE_CURVE('',#223,#225,#193,.T.);
#279=EDGE_CURVE('',#226,#224,#194,.T.);
#280=EDGE_CURVE('',#225,#226,#104,.T.);
#281=EDGE_CURVE('',#225,#227,#105,.T.);
#282=EDGE_CURVE('',#228,#226,#106,.T.);
#283=EDGE_CURVE('',#227,#228,#107,.T.);
#284=EDGE_CURVE('',#227,#229,#195,.T.);
#285=EDGE_CURVE('',#230,#228,#196,.T.);
#286=EDGE_CURVE('',#229,#230,#108,.T.);
#287=EDGE_CURVE('',#229,#231,#109,.T.);
#288=EDGE_CURVE('',#232,#230,#110,.T.);
#289=EDGE_CURVE('',#231,#232,#111,.T.);
#290=EDGE_CURVE('',#233,#231,#197,.T.);
#291=EDGE_CURVE('',#234,#232,#198,.T.);
#292=EDGE_CURVE('',#233,#234,#112,.T.);
#293=EDGE_CURVE('',#235,#233,#113,.T.);
#294=EDGE_CURVE('',#236,#234,#114,.T.);
#295=EDGE_CURVE('',#235,#236,#115,.T.);
#296=EDGE_CURVE('',#237,#235,#199,.T.);
#297=EDGE_CURVE('',#238,#236,#200,.T.);
#298=EDGE_CURVE('',#237,#238,#116,.T.);
#299=EDGE_CURVE('',#239,#237,#117,.T.);
#300=EDGE_CURVE('',#240,#238,#118,.T.);
#301=EDGE_CURVE('',#239,#240,#119,.T.);
#302=EDGE_CURVE('',#241,#239,#201,.T.);
#303=EDGE_CURVE('',#242,#240,#202,.T.);
#304=EDGE_CURVE('',#241,#242,#120,.T.);
#305=EDGE_CURVE('',#241,#243,#121,.T.);
#306=EDGE_CURVE('',#244,#242,#122,.T.);
#307=EDGE_CURVE('',#243,#244,#123,.T.);
#308=EDGE_CURVE('',#245,#243,#203,.T.);
#309=EDGE_CURVE('',#246,#244,#204,.T.);
#310=EDGE_CURVE('',#245,#246,#124,.T.);
#311=EDGE_CURVE('',#247,#245,#125,.T.);
#312=EDGE_CURVE('',#248,#246,#126,.T.);
#313=EDGE_CURVE('',#247,#248,#127,.T.);
#314=EDGE_CURVE('',#247,#249,#205,.T.);
#315=EDGE_CURVE('',#250,#248,#206,.T.);
#316=EDGE_CURVE('',#249,#250,#128,.T.);
#317=EDGE_CURVE('',#251,#249,#129,.T.);
#318=EDGE_CURVE('',#252,#250,#130,.T.);
#319=EDGE_CURVE('',#251,#252,#131,.T.);
#320=EDGE_CURVE('',#251,#253,#207,.T.);
#321=EDGE_CURVE('',#254,#252,#208,.T.);
#322=EDGE_CURVE('',#253,#254,#132,.T.);
#323=EDGE_CURVE('',#255,#253,#133,.T.);
#324=EDGE_CURVE('',#256,#254,#134,.T.);
#325=EDGE_CURVE('',#255,#256,#135,.T.);
#326=EDGE_CURVE('',#257,#255,#209,.T.);
#327=EDGE_CURVE('',#258,#256,#210,.T.);
#328=EDGE_CURVE('',#257,#258,#136,.T.);
#329=EDGE_CURVE('',#220,#257,#137,.T.);
#330=EDGE_CURVE('',#221,#258,#138,.T.);
#331=ORIENTED_EDGE('',*,*,#259,.F.);
#332=ORIENTED_EDGE('',*,*,#260,.T.);
#333=ORIENTED_EDGE('',*,*,#261,.F.);
#334=ORIENTED_EDGE('',*,*,#260,.F.);
#335=ORIENTED_EDGE('',*,*,#262,.F.);
#336=ORIENTED_EDGE('',*,*,#263,.T.);
#337=ORIENTED_EDGE('',*,*,#264,.T.);
#338=ORIENTED_EDGE('',*,*,#263,.F.);
#339=ORIENTED_EDGE('',*,*,#265,.F.);
#340=ORIENTED_EDGE('',*,*,#266,.T.);
#341=ORIENTED_EDGE('',*,*,#267,.T.);
#342=ORIENTED_EDGE('',*,*,#266,.F.);
#343=ORIENTED_EDGE('',*,*,#268,.F.);
#344=ORIENTED_EDGE('',*,*,#269,.T.);
#345=ORIENTED_EDGE('',*,*,#270,.T.);
#346=ORIENTED_EDGE('',*,*,#269,.F.);
#347=ORIENTED_EDGE('',*,*,#271,.T.);
#348=ORIENTED_EDGE('',*,*,#272,.T.);
#349=ORIENTED_EDGE('',*,*,#273,.F.);
#350=ORIENTED_EDGE('',*,*,#274,.F.);
#351=ORIENTED_EDGE('',*,*,#275,.F.);
#352=ORIENTED_EDGE('',*,*,#274,.T.);
#353=ORIENTED_EDGE('',*,*,#276,.F.);
#354=ORIENTED_EDGE('',*,*,#277,.F.);
#355=ORIENTED_EDGE('',*,*,#278,.F.);
#356=ORIENTED_EDGE('',*,*,#277,.T.);
#357=ORIENTED_EDGE('',*,*,#279,.F.);
#358=ORIENTED_EDGE('',*,*,#280,.F.);
#359=ORIENTED_EDGE('',*,*,#281,.F.);
#360=ORIENTED_EDGE('',*,*,#280,.T.);
#361=ORIENTED_EDGE('',*,*,#282,.F.);
#362=ORIENTED_EDGE('',*,*,#283,.F.);
#363=ORIENTED_EDGE('',*,*,#284,.F.);
#364=ORIENTED_EDGE('',*,*,#283,.T.);
#365=ORIENTED_EDGE('',*,*,#285,.F.);
#366=ORIENTED_EDGE('',*,*,#286,.F.);
#367=ORIENTED_EDGE('',*,*,#287,.F.);
#368=ORIENTED_EDGE('',*,*,#286,.T.);
#369=ORIENTED_EDGE('',*,*,#288,.F.);
#370=ORIENTED_EDGE('',*,*,#289,.F.);
#371=ORIENTED_EDGE('',*,*,#290,.T.);
#372=ORIENTED_EDGE('',*,*,#289,.T.);
#373=ORIENTED_EDGE('',*,*,#291,.F.);
#374=ORIENTED_EDGE('',*,*,#292,.F.);
#375=ORIENTED_EDGE('',*,*,#293,.T.);
#376=ORIENTED_EDGE('',*,*,#292,.T.);
#377=ORIENTED_EDGE('',*,*,#294,.F.);
#378=ORIENTED_EDGE('',*,*,#295,.F.);
#379=ORIENTED_EDGE('',*,*,#296,.T.);
#380=ORIENTED_EDGE('',*,*,#295,.T.);
#381=ORIENTED_EDGE('',*,*,#297,.F.);
#382=ORIENTED_EDGE('',*,*,#298,.F.);
#383=ORIENTED_EDGE('',*,*,#299,.T.);
#384=ORIENTED_EDGE('',*,*,#298,.T.);
#385=ORIENTED_EDGE('',*,*,#300,.F.);
#386=ORIENTED_EDGE('',*,*,#301,.F.);
#387=ORIENTED_EDGE('',*,*,#302,.T.);
#388=ORIENTED_EDGE('',*,*,#301,.T.);
#389=ORIENTED_EDGE('',*,*,#303,.F.);
#390=ORIENTED_EDGE('',*,*,#304,.F.);
#391=ORIENTED_EDGE('',*,*,#305,.F.);
#392=ORIENTED_EDGE('',*,*,#304,.T.);
#393=ORIENTED_EDGE('',*,*,#306,.F.);
#394=ORIENTED_EDGE('',*,*,#307,.F.);
#395=ORIENTED_EDGE('',*,*,#308,.T.);
#396=ORIENTED_EDGE('',*,*,#307,.T.);
#397=ORIENTED_EDGE('',*,*,#309,.F.);
#398=ORIENTED_EDGE('',*,*,#310,.F.);
#399=ORIENTED_EDGE('',*,*,#311,.T.);
#400=ORIENTED_EDGE('',*,*,#310,.T.);
#401=ORIENTED_EDGE('',*,*,#312,.F.);
#402=ORIENTED_EDGE('',*,*,#313,.F.);
#403=ORIENTED_EDGE('',*,*,#314,.F.);
#404=ORIENTED_EDGE('',*,*,#313,.T.);
#405=ORIENTED_EDGE('',*,*,#315,.F.);
#406=ORIENTED_EDGE('',*,*,#316,.F.);
#407=ORIENTED_EDGE('',*,*,#317,.T.);
#408=ORIENTED_EDGE('',*,*,#316,.T.);
#409=ORIENTED_EDGE('',*,*,#318,.F.);
#410=ORIENTED_EDGE('',*,*,#319,.F.);
#411=ORIENTED_EDGE('',*,*,#320,.F.);
#412=ORIENTED_EDGE('',*,*,#319,.T.);
#413=ORIENTED_EDGE('',*,*,#321,.F.);
#414=ORIENTED_EDGE('',*,*,#322,.F.);
#415=ORIENTED_EDGE('',*,*,#323,.T.);
#416=ORIENTED_EDGE('',*,*,#322,.T.);
#417=ORIENTED_EDGE('',*,*,#324,.F.);
#418=ORIENTED_EDGE('',*,*,#325,.F.);
#419=ORIENTED_EDGE('',*,*,#326,.T.);
#420=ORIENTED_EDGE('',*,*,#325,.T.);
#421=ORIENTED_EDGE('',*,*,#327,.F.);
#422=ORIENTED_EDGE('',*,*,#328,.F.);
#423=ORIENTED_EDGE('',*,*,#329,.T.);
#424=ORIENTED_EDGE('',*,*,#328,.T.);
#425=ORIENTED_EDGE('',*,*,#330,.F.);
#426=ORIENTED_EDGE('',*,*,#272,.F.);
#427=ORIENTED_EDGE('',*,*,#330,.T.);
#428=ORIENTED_EDGE('',*,*,#327,.T.);
#429=ORIENTED_EDGE('',*,*,#324,.T.);
#430=ORIENTED_EDGE('',*,*,#321,.T.);
#431=ORIENTED_EDGE('',*,*,#318,.T.);
#432=ORIENTED_EDGE('',*,*,#315,.T.);
#433=ORIENTED_EDGE('',*,*,#312,.T.);
#434=ORIENTED_EDGE('',*,*,#309,.T.);
#435=ORIENTED_EDGE('',*,*,#306,.T.);
#436=ORIENTED_EDGE('',*,*,#303,.T.);
#437=ORIENTED_EDGE('',*,*,#300,.T.);
#438=ORIENTED_EDGE('',*,*,#297,.T.);
#439=ORIENTED_EDGE('',*,*,#294,.T.);
#440=ORIENTED_EDGE('',*,*,#291,.T.);
#441=ORIENTED_EDGE('',*,*,#288,.T.);
#442=ORIENTED_EDGE('',*,*,#285,.T.);
#443=ORIENTED_EDGE('',*,*,#282,.T.);
#444=ORIENTED_EDGE('',*,*,#279,.T.);
#445=ORIENTED_EDGE('',*,*,#276,.T.);
#446=ORIENTED_EDGE('',*,*,#273,.T.);
#447=ORIENTED_EDGE('',*,*,#259,.T.);
#448=ORIENTED_EDGE('',*,*,#268,.T.);
#449=ORIENTED_EDGE('',*,*,#265,.T.);
#450=ORIENTED_EDGE('',*,*,#262,.T.);
#451=ORIENTED_EDGE('',*,*,#329,.F.);
#452=ORIENTED_EDGE('',*,*,#271,.F.);
#453=ORIENTED_EDGE('',*,*,#275,.T.);
#454=ORIENTED_EDGE('',*,*,#278,.T.);
#455=ORIENTED_EDGE('',*,*,#281,.T.);
#456=ORIENTED_EDGE('',*,*,#284,.T.);
#457=ORIENTED_EDGE('',*,*,#287,.T.);
#458=ORIENTED_EDGE('',*,*,#290,.F.);
#459=ORIENTED_EDGE('',*,*,#293,.F.);
#460=ORIENTED_EDGE('',*,*,#296,.F.);
#461=ORIENTED_EDGE('',*,*,#299,.F.);
#462=ORIENTED_EDGE('',*,*,#302,.F.);
#463=ORIENTED_EDGE('',*,*,#305,.T.);
#464=ORIENTED_EDGE('',*,*,#308,.F.);
#465=ORIENTED_EDGE('',*,*,#311,.F.);
#466=ORIENTED_EDGE('',*,*,#314,.T.);
#467=ORIENTED_EDGE('',*,*,#317,.F.);
#468=ORIENTED_EDGE('',*,*,#320,.T.);
#469=ORIENTED_EDGE('',*,*,#323,.F.);
#470=ORIENTED_EDGE('',*,*,#326,.F.);
#471=ORIENTED_EDGE('',*,*,#261,.T.);
#472=ORIENTED_EDGE('',*,*,#270,.F.);
#473=ORIENTED_EDGE('',*,*,#267,.F.);
#474=ORIENTED_EDGE('',*,*,#264,.F.);
#475=CYLINDRICAL_SURFACE('',#529,2.55000000000001);
#476=CYLINDRICAL_SURFACE('',#532,2.54999999999999);
#477=CYLINDRICAL_SURFACE('',#535,2.55);
#478=CYLINDRICAL_SURFACE('',#538,2.55);
#479=CYLINDRICAL_SURFACE('',#541,4.99999999999998);
#480=CYLINDRICAL_SURFACE('',#545,5.0000000000001);
#481=CYLINDRICAL_SURFACE('',#549,4.99999999999999);
#482=CYLINDRICAL_SURFACE('',#553,5.00000000000002);
#483=CYLINDRICAL_SURFACE('',#557,5.00000000000002);
#484=CYLINDRICAL_SURFACE('',#561,5.);
#485=CYLINDRICAL_SURFACE('',#565,5.);
#486=CYLINDRICAL_SURFACE('',#569,5.);
#487=CYLINDRICAL_SURFACE('',#573,4.99999999999991);
#488=CYLINDRICAL_SURFACE('',#577,5.);
#489=ADVANCED_FACE('',(#35),#475,.F.);
#490=ADVANCED_FACE('',(#36),#476,.F.);
#491=ADVANCED_FACE('',(#37),#477,.F.);
#492=ADVANCED_FACE('',(#38),#478,.F.);
#493=ADVANCED_FACE('',(#39),#479,.T.);
#494=ADVANCED_FACE('',(#40),#23,.T.);
#495=ADVANCED_FACE('',(#41),#480,.F.);
#496=ADVANCED_FACE('',(#42),#24,.T.);
#497=ADVANCED_FACE('',(#43),#481,.F.);
#498=ADVANCED_FACE('',(#44),#25,.T.);
#499=ADVANCED_FACE('',(#45),#482,.T.);
#500=ADVANCED_FACE('',(#46),#26,.T.);
#501=ADVANCED_FACE('',(#47),#483,.T.);
#502=ADVANCED_FACE('',(#48),#27,.T.);
#503=ADVANCED_FACE('',(#49),#484,.T.);
#504=ADVANCED_FACE('',(#50),#28,.T.);
#505=ADVANCED_FACE('',(#51),#485,.T.);
#506=ADVANCED_FACE('',(#52),#29,.T.);
#507=ADVANCED_FACE('',(#53),#486,.F.);
#508=ADVANCED_FACE('',(#54),#30,.T.);
#509=ADVANCED_FACE('',(#55),#487,.F.);
#510=ADVANCED_FACE('',(#56),#31,.T.);
#511=ADVANCED_FACE('',(#57),#488,.T.);
#512=ADVANCED_FACE('',(#58),#32,.T.);
#513=ADVANCED_FACE('',(#59,#15,#16,#17,#18),#33,.T.);
#514=ADVANCED_FACE('',(#60,#19,#20,#21,#22),#34,.F.);
#515=CLOSED_SHELL('',(#489,#490,#491,#492,#493,#494,#495,#496,#497,#498,
#499,#500,#501,#502,#503,#504,#505,#506,#507,#508,#509,#510,#511,#512,#513,
#514));
#516=DERIVED_UNIT_ELEMENT(#518,1.);
#517=DERIVED_UNIT_ELEMENT(#889,-3.);
#518=(
MASS_UNIT()
NAMED_UNIT(*)
SI_UNIT(.KILO.,.GRAM.)
);
#519=DERIVED_UNIT((#516,#517));
#520=MEASURE_REPRESENTATION_ITEM('density measure',
POSITIVE_RATIO_MEASURE(7850.),#519);
#521=PROPERTY_DEFINITION_REPRESENTATION(#526,#523);
#522=PROPERTY_DEFINITION_REPRESENTATION(#527,#524);
#523=REPRESENTATION('material name',(#525),#886);
#524=REPRESENTATION('density',(#520),#886);
#525=DESCRIPTIVE_REPRESENTATION_ITEM('Steel','Steel');
#526=PROPERTY_DEFINITION('material property','material name',#896);
#527=PROPERTY_DEFINITION('material property','density of part',#896);
#528=AXIS2_PLACEMENT_3D('',#737,#583,#584);
#529=AXIS2_PLACEMENT_3D('',#738,#585,#586);
#530=AXIS2_PLACEMENT_3D('',#740,#587,#588);
#531=AXIS2_PLACEMENT_3D('',#743,#590,#591);
#532=AXIS2_PLACEMENT_3D('',#744,#592,#593);
#533=AXIS2_PLACEMENT_3D('',#746,#594,#595);
#534=AXIS2_PLACEMENT_3D('',#749,#597,#598);
#535=AXIS2_PLACEMENT_3D('',#750,#599,#600);
#536=AXIS2_PLACEMENT_3D('',#752,#601,#602);
#537=AXIS2_PLACEMENT_3D('',#755,#604,#605);
#538=AXIS2_PLACEMENT_3D('',#756,#606,#607);
#539=AXIS2_PLACEMENT_3D('',#758,#608,#609);
#540=AXIS2_PLACEMENT_3D('',#761,#611,#612);
#541=AXIS2_PLACEMENT_3D('',#762,#613,#614);
#542=AXIS2_PLACEMENT_3D('',#765,#615,#616);
#543=AXIS2_PLACEMENT_3D('',#769,#618,#619);
#544=AXIS2_PLACEMENT_3D('',#771,#621,#622);
#545=AXIS2_PLACEMENT_3D('',#777,#626,#627);
#546=AXIS2_PLACEMENT_3D('',#779,#628,#629);
#547=AXIS2_PLACEMENT_3D('',#781,#630,#631);
#548=AXIS2_PLACEMENT_3D('',#783,#633,#634);
#549=AXIS2_PLACEMENT_3D('',#789,#638,#639);
#550=AXIS2_PLACEMENT_3D('',#791,#640,#641);
#551=AXIS2_PLACEMENT_3D('',#793,#642,#643);
#552=AXIS2_PLACEMENT_3D('',#795,#645,#646);
#553=AXIS2_PLACEMENT_3D('',#801,#650,#651);
#554=AXIS2_PLACEMENT_3D('',#803,#652,#653);
#555=AXIS2_PLACEMENT_3D('',#805,#654,#655);
#556=AXIS2_PLACEMENT_3D('',#807,#657,#658);
#557=AXIS2_PLACEMENT_3D('',#813,#662,#663);
#558=AXIS2_PLACEMENT_3D('',#815,#664,#665);
#559=AXIS2_PLACEMENT_3D('',#817,#666,#667);
#560=AXIS2_PLACEMENT_3D('',#819,#669,#670);
#561=AXIS2_PLACEMENT_3D('',#825,#674,#675);
#562=AXIS2_PLACEMENT_3D('',#827,#676,#677);
#563=AXIS2_PLACEMENT_3D('',#829,#678,#679);
#564=AXIS2_PLACEMENT_3D('',#831,#681,#682);
#565=AXIS2_PLACEMENT_3D('',#837,#686,#687);
#566=AXIS2_PLACEMENT_3D('',#839,#688,#689);
#567=AXIS2_PLACEMENT_3D('',#841,#690,#691);
#568=AXIS2_PLACEMENT_3D('',#843,#693,#694);
#569=AXIS2_PLACEMENT_3D('',#849,#698,#699);
#570=AXIS2_PLACEMENT_3D('',#851,#700,#701);
#571=AXIS2_PLACEMENT_3D('',#853,#702,#703);
#572=AXIS2_PLACEMENT_3D('',#855,#705,#706);
#573=AXIS2_PLACEMENT_3D('',#861,#710,#711);
#574=AXIS2_PLACEMENT_3D('',#863,#712,#713);
#575=AXIS2_PLACEMENT_3D('',#865,#714,#715);
#576=AXIS2_PLACEMENT_3D('',#867,#717,#718);
#577=AXIS2_PLACEMENT_3D('',#873,#722,#723);
#578=AXIS2_PLACEMENT_3D('',#875,#724,#725);
#579=AXIS2_PLACEMENT_3D('',#877,#726,#727);
#580=AXIS2_PLACEMENT_3D('',#879,#729,#730);
#581=AXIS2_PLACEMENT_3D('',#882,#733,#734);
#582=AXIS2_PLACEMENT_3D('',#883,#735,#736);
#583=DIRECTION('axis',(0.,0.,1.));
#584=DIRECTION('refdir',(1.,0.,0.));
#585=DIRECTION('center_axis',(0.,0.,-1.));
#586=DIRECTION('ref_axis',(-1.,0.,0.));
#587=DIRECTION('center_axis',(0.,0.,-1.));
#588=DIRECTION('ref_axis',(-1.,0.,0.));
#589=DIRECTION('',(0.,0.,-1.));
#590=DIRECTION('center_axis',(0.,0.,1.));
#591=DIRECTION('ref_axis',(-1.,0.,0.));
#592=DIRECTION('center_axis',(0.,0.,1.));
#593=DIRECTION('ref_axis',(1.,0.,0.));
#594=DIRECTION('center_axis',(0.,0.,-1.));
#595=DIRECTION('ref_axis',(1.,0.,0.));
#596=DIRECTION('',(0.,0.,-1.));
#597=DIRECTION('center_axis',(0.,0.,-1.));
#598=DIRECTION('ref_axis',(1.,0.,0.));
#599=DIRECTION('center_axis',(0.,0.,1.));
#600=DIRECTION('ref_axis',(1.,0.,0.));
#601=DIRECTION('center_axis',(0.,0.,-1.));
#602=DIRECTION('ref_axis',(1.,0.,0.));
#603=DIRECTION('',(0.,0.,-1.));
#604=DIRECTION('center_axis',(0.,0.,-1.));
#605=DIRECTION('ref_axis',(1.,0.,0.));
#606=DIRECTION('center_axis',(0.,0.,1.));
#607=DIRECTION('ref_axis',(1.,0.,0.));
#608=DIRECTION('center_axis',(0.,0.,-1.));
#609=DIRECTION('ref_axis',(1.,0.,0.));
#610=DIRECTION('',(0.,0.,-1.));
#611=DIRECTION('center_axis',(0.,0.,-1.));
#612=DIRECTION('ref_axis',(1.,0.,0.));
#613=DIRECTION('center_axis',(0.,0.,1.));
#614=DIRECTION('ref_axis',(1.,0.,0.));
#615=DIRECTION('center_axis',(0.,0.,1.));
#616=DIRECTION('ref_axis',(1.,0.,0.));
#617=DIRECTION('',(0.,0.,1.));
#618=DIRECTION('center_axis',(0.,0.,1.));
#619=DIRECTION('ref_axis',(1.,0.,0.));
#620=DIRECTION('',(0.,0.,1.));
#621=DIRECTION('center_axis',(1.,9.60913737088203E-16,0.));
#622=DIRECTION('ref_axis',(-9.60913737088203E-16,1.,0.));
#623=DIRECTION('',(9.60913737088203E-16,-1.,0.));
#624=DIRECTION('',(-9.60913737088203E-16,1.,0.));
#625=DIRECTION('',(0.,0.,1.));
#626=DIRECTION('center_axis',(0.,0.,1.));
#627=DIRECTION('ref_axis',(-1.,-5.32907051820065E-15,0.));
#628=DIRECTION('center_axis',(0.,0.,1.));
#629=DIRECTION('ref_axis',(-1.,-5.32907051820065E-15,0.));
#630=DIRECTION('center_axis',(0.,0.,-1.));
#631=DIRECTION('ref_axis',(-1.,-5.32907051820065E-15,0.));
#632=DIRECTION('',(0.,0.,1.));
#633=DIRECTION('center_axis',(0.832050294337844,0.554700196225228,0.));
#634=DIRECTION('ref_axis',(-0.554700196225228,0.832050294337844,0.));
#635=DIRECTION('',(0.554700196225228,-0.832050294337844,0.));
#636=DIRECTION('',(-0.554700196225228,0.832050294337844,0.));
#637=DIRECTION('',(0.,0.,1.));
#638=DIRECTION('center_axis',(0.,0.,1.));
#639=DIRECTION('ref_axis',(-0.832050294337844,-0.554700196225228,0.));
#640=DIRECTION('center_axis',(0.,0.,1.));
#641=DIRECTION('ref_axis',(-0.832050294337844,-0.554700196225228,0.));
#642=DIRECTION('center_axis',(0.,0.,-1.));
#643=DIRECTION('ref_axis',(-0.832050294337844,-0.554700196225228,0.));
#644=DIRECTION('',(0.,0.,1.));
#645=DIRECTION('center_axis',(-1.80171325704038E-16,1.,0.));
#646=DIRECTION('ref_axis',(-1.,-1.80171325704038E-16,0.));
#647=DIRECTION('',(1.,1.80171325704038E-16,0.));
#648=DIRECTION('',(-1.,-1.80171325704038E-16,0.));
#649=DIRECTION('',(0.,0.,1.));
#650=DIRECTION('center_axis',(0.,0.,1.));
#651=DIRECTION('ref_axis',(1.,2.22044604925031E-15,0.));
#652=DIRECTION('center_axis',(0.,0.,1.));
#653=DIRECTION('ref_axis',(1.,2.22044604925031E-15,0.));
#654=DIRECTION('center_axis',(0.,0.,1.));
#655=DIRECTION('ref_axis',(1.,2.22044604925031E-15,0.));
#656=DIRECTION('',(0.,0.,1.));
#657=DIRECTION('center_axis',(1.,0.,0.));
#658=DIRECTION('ref_axis',(0.,1.,0.));
#659=DIRECTION('',(0.,1.,0.));
#660=DIRECTION('',(0.,1.,0.));
#661=DIRECTION('',(0.,0.,1.));
#662=DIRECTION('center_axis',(0.,0.,1.));
#663=DIRECTION('ref_axis',(3.55271367880049E-15,-1.,0.));
#664=DIRECTION('center_axis',(0.,0.,1.));
#665=DIRECTION('ref_axis',(3.55271367880049E-15,-1.,0.));
#666=DIRECTION('center_axis',(0.,0.,1.));
#667=DIRECTION('ref_axis',(3.55271367880049E-15,-1.,0.));
#668=DIRECTION('',(0.,0.,1.));
#669=DIRECTION('center_axis',(-4.93432455388958E-17,-1.,0.));
#670=DIRECTION('ref_axis',(1.,-4.93432455388958E-17,0.));
#671=DIRECTION('',(1.,-4.93432455388958E-17,0.));
#672=DIRECTION('',(1.,-4.93432455388958E-17,0.));
#673=DIRECTION('',(0.,0.,1.));
#674=DIRECTION('center_axis',(0.,0.,1.));
#675=DIRECTION('ref_axis',(-1.,-2.22044604925031E-16,0.));
#676=DIRECTION('center_axis',(0.,0.,1.));
#677=DIRECTION('ref_axis',(-1.,-2.22044604925031E-16,0.));
#678=DIRECTION('center_axis',(0.,0.,1.));
#679=DIRECTION('ref_axis',(-1.,-2.22044604925031E-16,0.));
#680=DIRECTION('',(0.,0.,1.));
#681=DIRECTION('center_axis',(-1.,1.11022302462516E-16,0.));
#682=DIRECTION('ref_axis',(-1.11022302462516E-16,-1.,0.));
#683=DIRECTION('',(1.11022302462516E-16,1.,0.));
#684=DIRECTION('',(-1.11022302462516E-16,-1.,0.));
#685=DIRECTION('',(0.,0.,1.));
#686=DIRECTION('center_axis',(0.,0.,1.));
#687=DIRECTION('ref_axis',(-5.55111512312578E-16,1.,0.));
#688=DIRECTION('center_axis',(0.,0.,1.));
#689=DIRECTION('ref_axis',(-5.55111512312578E-16,1.,0.));
#690=DIRECTION('center_axis',(0.,0.,1.));
#691=DIRECTION('ref_axis',(-5.55111512312578E-16,1.,0.));
#692=DIRECTION('',(0.,0.,1.));
#693=DIRECTION('center_axis',(0.,1.,0.));
#694=DIRECTION('ref_axis',(-1.,0.,0.));
#695=DIRECTION('',(-1.,0.,0.));
#696=DIRECTION('',(-1.,0.,0.));
#697=DIRECTION('',(0.,0.,1.));
#698=DIRECTION('center_axis',(0.,0.,1.));
#699=DIRECTION('ref_axis',(-1.33226762955019E-15,-1.,0.));
#700=DIRECTION('center_axis',(0.,0.,1.));
#701=DIRECTION('ref_axis',(-1.33226762955019E-15,-1.,0.));
#702=DIRECTION('center_axis',(0.,0.,-1.));
#703=DIRECTION('ref_axis',(-1.33226762955019E-15,-1.,0.));
#704=DIRECTION('',(0.,0.,1.));
#705=DIRECTION('center_axis',(-0.832050294337844,0.554700196225228,0.));
#706=DIRECTION('ref_axis',(-0.554700196225228,-0.832050294337844,0.));
#707=DIRECTION('',(-0.554700196225228,-0.832050294337844,0.));
#708=DIRECTION('',(-0.554700196225228,-0.832050294337844,0.));
#709=DIRECTION('',(0.,0.,1.));
#710=DIRECTION('center_axis',(0.,0.,1.));
#711=DIRECTION('ref_axis',(0.832050294337842,-0.554700196225231,0.));
#712=DIRECTION('center_axis',(0.,0.,1.));
#713=DIRECTION('ref_axis',(0.832050294337842,-0.554700196225231,0.));
#714=DIRECTION('center_axis',(0.,0.,-1.));
#715=DIRECTION('ref_axis',(0.832050294337842,-0.554700196225231,0.));
#716=DIRECTION('',(0.,0.,1.));
#717=DIRECTION('center_axis',(-1.,1.20114217136026E-15,0.));
#718=DIRECTION('ref_axis',(-1.20114217136026E-15,-1.,0.));
#719=DIRECTION('',(-1.20114217136026E-15,-1.,0.));
#720=DIRECTION('',(-1.20114217136026E-15,-1.,0.));
#721=DIRECTION('',(0.,0.,1.));
#722=DIRECTION('center_axis',(0.,0.,1.));
#723=DIRECTION('ref_axis',(0.,1.,0.));
#724=DIRECTION('center_axis',(0.,0.,1.));
#725=DIRECTION('ref_axis',(0.,1.,0.));
#726=DIRECTION('center_axis',(0.,0.,1.));
#727=DIRECTION('ref_axis',(0.,1.,0.));
#728=DIRECTION('',(0.,0.,1.));
#729=DIRECTION('center_axis',(0.,1.,0.));
#730=DIRECTION('ref_axis',(-1.,0.,0.));
#731=DIRECTION('',(-1.,0.,0.));
#732=DIRECTION('',(-1.,0.,0.));
#733=DIRECTION('center_axis',(0.,0.,1.));
#734=DIRECTION('ref_axis',(1.,0.,0.));
#735=DIRECTION('center_axis',(0.,0.,1.));
#736=DIRECTION('ref_axis',(1.,0.,0.));
#737=CARTESIAN_POINT('',(0.,0.,0.));
#738=CARTESIAN_POINT('Origin',(50.,33.,3.175));
#739=CARTESIAN_POINT('',(52.55,33.,3.175));
#740=CARTESIAN_POINT('Origin',(50.,33.,3.175));
#741=CARTESIAN_POINT('',(52.55,33.,0.));
#742=CARTESIAN_POINT('',(52.55,33.,3.175));
#743=CARTESIAN_POINT('Origin',(50.,33.,0.));
#744=CARTESIAN_POINT('Origin',(88.,10.,0.));
#745=CARTESIAN_POINT('',(85.45,10.,3.175));
#746=CARTESIAN_POINT('Origin',(88.,10.,3.175));
#747=CARTESIAN_POINT('',(85.45,10.,0.));
#748=CARTESIAN_POINT('',(85.45,10.,0.));
#749=CARTESIAN_POINT('Origin',(88.,10.,0.));
#750=CARTESIAN_POINT('Origin',(50.,63.,0.));
#751=CARTESIAN_POINT('',(47.45,63.,3.175));
#752=CARTESIAN_POINT('Origin',(50.,63.,3.175));
#753=CARTESIAN_POINT('',(47.45,63.,0.));
#754=CARTESIAN_POINT('',(47.45,63.,0.));
#755=CARTESIAN_POINT('Origin',(50.,63.,0.));
#756=CARTESIAN_POINT('Origin',(12.,10.,0.));
#757=CARTESIAN_POINT('',(9.45,10.,3.175));
#758=CARTESIAN_POINT('Origin',(12.,10.,3.175));
#759=CARTESIAN_POINT('',(9.45,10.,0.));
#760=CARTESIAN_POINT('',(9.45,10.,0.));
#761=CARTESIAN_POINT('Origin',(12.,10.,0.));
#762=CARTESIAN_POINT('Origin',(55.,70.,0.));
#763=CARTESIAN_POINT('',(60.,70.,0.));
#764=CARTESIAN_POINT('',(55.,75.,0.));
#765=CARTESIAN_POINT('Origin',(55.,70.,0.));
#766=CARTESIAN_POINT('',(55.,75.,3.175));
#767=CARTESIAN_POINT('',(55.,75.,0.));
#768=CARTESIAN_POINT('',(60.,70.,3.175));
#769=CARTESIAN_POINT('Origin',(55.,70.,3.175));
#770=CARTESIAN_POINT('',(60.,70.,0.));
#771=CARTESIAN_POINT('Origin',(60.,51.51387818866,0.));
#772=CARTESIAN_POINT('',(60.,51.51387818866,0.));
#773=CARTESIAN_POINT('',(60.,70.,0.));
#774=CARTESIAN_POINT('',(60.,51.51387818866,3.175));
#775=CARTESIAN_POINT('',(60.,70.,3.175));
#776=CARTESIAN_POINT('',(60.,51.51387818866,0.));
#777=CARTESIAN_POINT('Origin',(65.0000000000001,51.51387818866,0.));
#778=CARTESIAN_POINT('',(60.8397485283108,48.7403772075339,0.));
#779=CARTESIAN_POINT('Origin',(65.0000000000001,51.51387818866,0.));
#780=CARTESIAN_POINT('',(60.8397485283108,48.7403772075339,3.175));
#781=CARTESIAN_POINT('Origin',(65.0000000000001,51.51387818866,3.175));
#782=CARTESIAN_POINT('',(60.8397485283108,48.7403772075339,0.));
#783=CARTESIAN_POINT('Origin',(78.5156673207508,22.2264990188738,0.));
#784=CARTESIAN_POINT('',(78.5156673207508,22.2264990188738,0.));
#785=CARTESIAN_POINT('',(60.8397485283108,48.7403772075339,0.));
#786=CARTESIAN_POINT('',(78.5156673207508,22.2264990188738,3.175));
#787=CARTESIAN_POINT('',(60.8397485283108,48.7403772075339,3.175));
#788=CARTESIAN_POINT('',(78.5156673207508,22.2264990188738,0.));
#789=CARTESIAN_POINT('Origin',(82.67591879244,25.,0.));
#790=CARTESIAN_POINT('',(82.67591879244,20.,0.));
#791=CARTESIAN_POINT('Origin',(82.67591879244,25.,0.));
#792=CARTESIAN_POINT('',(82.67591879244,20.,3.175));
#793=CARTESIAN_POINT('Origin',(82.67591879244,25.,3.175));
#794=CARTESIAN_POINT('',(82.67591879244,20.,0.));
#795=CARTESIAN_POINT('Origin',(95.,20.,0.));
#796=CARTESIAN_POINT('',(95.,20.,0.));
#797=CARTESIAN_POINT('',(82.67591879244,20.,0.));
#798=CARTESIAN_POINT('',(95.,20.,3.175));
#799=CARTESIAN_POINT('',(82.67591879244,20.,3.175));
#800=CARTESIAN_POINT('',(95.,20.,0.));
#801=CARTESIAN_POINT('Origin',(95.,15.,0.));
#802=CARTESIAN_POINT('',(100.,15.,0.));
#803=CARTESIAN_POINT('Origin',(95.,15.,0.));
#804=CARTESIAN_POINT('',(100.,15.,3.175));
#805=CARTESIAN_POINT('Origin',(95.,15.,3.175));
#806=CARTESIAN_POINT('',(100.,15.,0.));
#807=CARTESIAN_POINT('Origin',(100.,5.,0.));
#808=CARTESIAN_POINT('',(100.,5.,0.));
#809=CARTESIAN_POINT('',(100.,5.,0.));
#810=CARTESIAN_POINT('',(100.,5.,3.175));
#811=CARTESIAN_POINT('',(100.,5.,3.175));
#812=CARTESIAN_POINT('',(100.,5.,0.));
#813=CARTESIAN_POINT('Origin',(95.,5.00000000000001,0.));
#814=CARTESIAN_POINT('',(95.,-4.44089209850063E-15,0.));
#815=CARTESIAN_POINT('Origin',(95.,5.00000000000001,0.));
#816=CARTESIAN_POINT('',(95.,0.,3.175));
#817=CARTESIAN_POINT('Origin',(95.,5.00000000000001,3.175));
#818=CARTESIAN_POINT('',(95.,-4.44089209850063E-15,0.));
#819=CARTESIAN_POINT('Origin',(5.,0.,0.));
#820=CARTESIAN_POINT('',(5.,0.,0.));
#821=CARTESIAN_POINT('',(5.,0.,0.));
#822=CARTESIAN_POINT('',(5.,0.,3.175));
#823=CARTESIAN_POINT('',(5.,0.,3.175));
#824=CARTESIAN_POINT('',(5.,0.,0.));
#825=CARTESIAN_POINT('Origin',(5.,5.,0.));
#826=CARTESIAN_POINT('',(0.,5.,0.));
#827=CARTESIAN_POINT('Origin',(5.,5.,0.));
#828=CARTESIAN_POINT('',(0.,5.,3.175));
#829=CARTESIAN_POINT('Origin',(5.,5.,3.175));
#830=CARTESIAN_POINT('',(0.,5.,0.));
#831=CARTESIAN_POINT('Origin',(1.11022302462516E-15,15.,0.));
#832=CARTESIAN_POINT('',(2.22044604925031E-15,15.,0.));
#833=CARTESIAN_POINT('',(0.,5.,0.));
#834=CARTESIAN_POINT('',(0.,15.,3.175));
#835=CARTESIAN_POINT('',(0.,5.,3.175));
#836=CARTESIAN_POINT('',(2.22044604925031E-15,15.,0.));
#837=CARTESIAN_POINT('Origin',(5.,15.,0.));
#838=CARTESIAN_POINT('',(5.,20.,0.));
#839=CARTESIAN_POINT('Origin',(5.,15.,0.));
#840=CARTESIAN_POINT('',(5.,20.,3.175));
#841=CARTESIAN_POINT('Origin',(5.,15.,3.175));
#842=CARTESIAN_POINT('',(5.,20.,0.));
#843=CARTESIAN_POINT('Origin',(17.32408120756,20.,0.));
#844=CARTESIAN_POINT('',(17.32408120756,20.,0.));
#845=CARTESIAN_POINT('',(17.32408120756,20.,0.));
#846=CARTESIAN_POINT('',(17.32408120756,20.,3.175));
#847=CARTESIAN_POINT('',(17.32408120756,20.,3.175));
#848=CARTESIAN_POINT('',(17.32408120756,20.,0.));
#849=CARTESIAN_POINT('Origin',(17.32408120756,25.,0.));
#850=CARTESIAN_POINT('',(21.4843326792492,22.2264990188739,0.));
#851=CARTESIAN_POINT('Origin',(17.32408120756,25.,0.));
#852=CARTESIAN_POINT('',(21.4843326792492,22.2264990188739,3.175));
#853=CARTESIAN_POINT('Origin',(17.32408120756,25.,3.175));
#854=CARTESIAN_POINT('',(21.4843326792492,22.2264990188739,0.));
#855=CARTESIAN_POINT('Origin',(39.1602514716892,48.7403772075339,0.));
#856=CARTESIAN_POINT('',(39.1602514716892,48.7403772075339,0.));
#857=CARTESIAN_POINT('',(39.1602514716892,48.7403772075339,0.));
#858=CARTESIAN_POINT('',(39.1602514716892,48.7403772075339,3.175));
#859=CARTESIAN_POINT('',(39.1602514716892,48.7403772075339,3.175));
#860=CARTESIAN_POINT('',(39.1602514716892,48.7403772075339,0.));
#861=CARTESIAN_POINT('Origin',(35.0000000000001,51.51387818866,0.));
#862=CARTESIAN_POINT('',(40.,51.51387818866,0.));
#863=CARTESIAN_POINT('Origin',(35.0000000000001,51.51387818866,0.));
#864=CARTESIAN_POINT('',(40.,51.51387818866,3.175));
#865=CARTESIAN_POINT('Origin',(35.0000000000001,51.51387818866,3.175));
#866=CARTESIAN_POINT('',(40.,51.51387818866,0.));
#867=CARTESIAN_POINT('Origin',(40.,70.,0.));
#868=CARTESIAN_POINT('',(40.,70.,0.));
#869=CARTESIAN_POINT('',(40.,70.,0.));
#870=CARTESIAN_POINT('',(40.,70.,3.175));
#871=CARTESIAN_POINT('',(40.,70.,3.175));
#872=CARTESIAN_POINT('',(40.,70.,0.));
#873=CARTESIAN_POINT('Origin',(45.,70.,0.));
#874=CARTESIAN_POINT('',(45.,75.,0.));
#875=CARTESIAN_POINT('Origin',(45.,70.,0.));
#876=CARTESIAN_POINT('',(45.,75.,3.175));
#877=CARTESIAN_POINT('Origin',(45.,70.,3.175));
#878=CARTESIAN_POINT('',(45.,75.,0.));
#879=CARTESIAN_POINT('Origin',(55.,75.,0.));
#880=CARTESIAN_POINT('',(50.,75.,0.));
#881=CARTESIAN_POINT('',(50.,75.,3.175));
#882=CARTESIAN_POINT('Origin',(50.,37.5,3.175));
#883=CARTESIAN_POINT('Origin',(50.,37.5,0.));
#884=UNCERTAINTY_MEASURE_WITH_UNIT(LENGTH_MEASURE(0.01),#888,
'DISTANCE_ACCURACY_VALUE',
'Maximum model space distance between geometric entities at asserted c
onnectivities');
#885=UNCERTAINTY_MEASURE_WITH_UNIT(LENGTH_MEASURE(0.01),#888,
'DISTANCE_ACCURACY_VALUE',
'Maximum model space distance between geometric entities at asserted c
onnectivities');
#886=(
GEOMETRIC_REPRESENTATION_CONTEXT(3)
GLOBAL_UNCERTAINTY_ASSIGNED_CONTEXT((#884))
GLOBAL_UNIT_ASSIGNED_CONTEXT((#888,#890,#891))
REPRESENTATION_CONTEXT('','3D')
);
#887=(
GEOMETRIC_REPRESENTATION_CONTEXT(3)
GLOBAL_UNCERTAINTY_ASSIGNED_CONTEXT((#885))
GLOBAL_UNIT_ASSIGNED_CONTEXT((#888,#890,#891))
REPRESENTATION_CONTEXT('','3D')
);
#888=(
LENGTH_UNIT()
NAMED_UNIT(*)
SI_UNIT(.MILLI.,.METRE.)
);
#889=(
LENGTH_UNIT()
NAMED_UNIT(*)
SI_UNIT($,.METRE.)
);
#890=(
NAMED_UNIT(*)
PLANE_ANGLE_UNIT()
SI_UNIT($,.RADIAN.)
);
#891=(
NAMED_UNIT(*)
SI_UNIT($,.STERADIAN.)
SOLID_ANGLE_UNIT()
);
#892=SHAPE_DEFINITION_REPRESENTATION(#893,#894);
#893=PRODUCT_DEFINITION_SHAPE('',$,#896);
#894=SHAPE_REPRESENTATION('',(#528),#886);
#895=PRODUCT_DEFINITION_CONTEXT('part definition',#900,'design');
#896=PRODUCT_DEFINITION('(Unsaved)','(Unsaved)',#897,#895);
#897=PRODUCT_DEFINITION_FORMATION('',$,#902);
#898=PRODUCT_RELATED_PRODUCT_CATEGORY('(Unsaved)','(Unsaved)',(#902));
#899=APPLICATION_PROTOCOL_DEFINITION('international standard',
'automotive_design',2009,#900);
#900=APPLICATION_CONTEXT(
'Core Data for Automotive Mechanical Design Process');
#901=PRODUCT_CONTEXT('part definition',#900,'mechanical');
#902=PRODUCT('(Unsaved)','(Unsaved)',$,(#901));
#903=PRESENTATION_STYLE_ASSIGNMENT((#904));
#904=SURFACE_STYLE_USAGE(.BOTH.,#905);
#905=SURFACE_SIDE_STYLE('',(#906));
#906=SURFACE_STYLE_FILL_AREA(#907);
#907=FILL_AREA_STYLE('Steel - Satin',(#908));
#908=FILL_AREA_STYLE_COLOUR('Steel - Satin',#909);
#909=COLOUR_RGB('Steel - Satin',0.627450980392157,0.627450980392157,0.627450980392157);
ENDSEC;
END-ISO-10303-21;
