ISO-10303-21;
HEADER;
/* Generated by software containing ST-Developer
 * from STEP Tools, Inc. (www.steptools.com) 
 */

FILE_DESCRIPTION(
/* description */ (''),
/* implementation_level */ '2;1');

FILE_NAME(
/* name */ 'front bed mount x2.step',
/* time_stamp */ '2025-06-28T00:46:45-07:00',
/* author */ (''),
/* organization */ (''),
/* preprocessor_version */ 'ST-DEVELOPER v20.1',
/* originating_system */ 'Autodesk Translation Framework v14.10.0.0',
/* authorisation */ '');

FILE_SCHEMA (('AUTOMOTIVE_DESIGN { 1 0 10303 214 3 1 1 }'));
ENDSEC;

DATA;
#10=MECHANICAL_DESIGN_GEOMETRIC_PRESENTATION_REPRESENTATION('',(#13),#584);
#11=SHAPE_REPRESENTATION_RELATIONSHIP('SRR','None',#591,#12);
#12=ADVANCED_BREP_SHAPE_REPRESENTATION('',(#14),#583);
#13=STYLED_ITEM('',(#600),#14);
#14=MANIFOLD_SOLID_BREP('Body1',#340);
#15=FACE_BOUND('',#54,.T.);
#16=FACE_BOUND('',#55,.T.);
#17=FACE_BOUND('',#56,.T.);
#18=FACE_BOUND('',#57,.T.);
#19=FACE_BOUND('',#58,.T.);
#20=FACE_BOUND('',#67,.T.);
#21=FACE_BOUND('',#68,.T.);
#22=FACE_BOUND('',#69,.T.);
#23=FACE_BOUND('',#70,.T.);
#24=FACE_BOUND('',#71,.T.);
#25=PLANE('',#357);
#26=PLANE('',#358);
#27=PLANE('',#359);
#28=PLANE('',#368);
#29=PLANE('',#377);
#30=PLANE('',#380);
#31=PLANE('',#384);
#32=PLANE('',#385);
#33=FACE_OUTER_BOUND('',#50,.T.);
#34=FACE_OUTER_BOUND('',#51,.T.);
#35=FACE_OUTER_BOUND('',#52,.T.);
#36=FACE_OUTER_BOUND('',#53,.T.);
#37=FACE_OUTER_BOUND('',#59,.T.);
#38=FACE_OUTER_BOUND('',#60,.T.);
#39=FACE_OUTER_BOUND('',#61,.T.);
#40=FACE_OUTER_BOUND('',#62,.T.);
#41=FACE_OUTER_BOUND('',#63,.T.);
#42=FACE_OUTER_BOUND('',#64,.T.);
#43=FACE_OUTER_BOUND('',#65,.T.);
#44=FACE_OUTER_BOUND('',#66,.T.);
#45=FACE_OUTER_BOUND('',#72,.T.);
#46=FACE_OUTER_BOUND('',#73,.T.);
#47=FACE_OUTER_BOUND('',#74,.T.);
#48=FACE_OUTER_BOUND('',#75,.T.);
#49=FACE_OUTER_BOUND('',#76,.T.);
#50=EDGE_LOOP('',(#224,#225,#226,#227));
#51=EDGE_LOOP('',(#228,#229,#230,#231));
#52=EDGE_LOOP('',(#232,#233,#234,#235));
#53=EDGE_LOOP('',(#236,#237,#238,#239,#240,#241,#242,#243,#244,#245));
#54=EDGE_LOOP('',(#246));
#55=EDGE_LOOP('',(#247));
#56=EDGE_LOOP('',(#248));
#57=EDGE_LOOP('',(#249));
#58=EDGE_LOOP('',(#250));
#59=EDGE_LOOP('',(#251,#252,#253,#254));
#60=EDGE_LOOP('',(#255,#256,#257,#258));
#61=EDGE_LOOP('',(#259,#260,#261,#262));
#62=EDGE_LOOP('',(#263,#264,#265,#266));
#63=EDGE_LOOP('',(#267,#268,#269,#270));
#64=EDGE_LOOP('',(#271,#272,#273,#274));
#65=EDGE_LOOP('',(#275,#276,#277,#278));
#66=EDGE_LOOP('',(#279,#280,#281,#282,#283,#284,#285,#286,#287,#288));
#67=EDGE_LOOP('',(#289));
#68=EDGE_LOOP('',(#290));
#69=EDGE_LOOP('',(#291));
#70=EDGE_LOOP('',(#292));
#71=EDGE_LOOP('',(#293));
#72=EDGE_LOOP('',(#294,#295,#296,#297));
#73=EDGE_LOOP('',(#298,#299,#300,#301));
#74=EDGE_LOOP('',(#302,#303,#304,#305));
#75=EDGE_LOOP('',(#306,#307,#308,#309));
#76=EDGE_LOOP('',(#310,#311,#312,#313));
#77=LINE('',#494,#104);
#78=LINE('',#497,#105);
#79=LINE('',#500,#106);
#80=LINE('',#502,#107);
#81=LINE('',#503,#108);
#82=LINE('',#506,#109);
#83=LINE('',#508,#110);
#84=LINE('',#509,#111);
#85=LINE('',#512,#112);
#86=LINE('',#516,#113);
#87=LINE('',#520,#114);
#88=LINE('',#523,#115);
#89=LINE('',#536,#116);
#90=LINE('',#537,#117);
#91=LINE('',#540,#118);
#92=LINE('',#544,#119);
#93=LINE('',#548,#120);
#94=LINE('',#554,#121);
#95=LINE('',#555,#122);
#96=LINE('',#558,#123);
#97=LINE('',#559,#124);
#98=LINE('',#564,#125);
#99=LINE('',#567,#126);
#100=LINE('',#573,#127);
#101=LINE('',#575,#128);
#102=LINE('',#577,#129);
#103=LINE('',#579,#130);
#104=VECTOR('',#395,10.);
#105=VECTOR('',#398,10.);
#106=VECTOR('',#401,10.);
#107=VECTOR('',#402,10.);
#108=VECTOR('',#403,10.);
#109=VECTOR('',#406,10.);
#110=VECTOR('',#407,10.);
#111=VECTOR('',#408,10.);
#112=VECTOR('',#411,10.);
#113=VECTOR('',#414,10.);
#114=VECTOR('',#417,10.);
#115=VECTOR('',#420,10.);
#116=VECTOR('',#433,10.);
#117=VECTOR('',#434,10.);
#118=VECTOR('',#437,1.54999999999999);
#119=VECTOR('',#442,1.55);
#120=VECTOR('',#447,1.55);
#121=VECTOR('',#454,10.);
#122=VECTOR('',#455,10.);
#123=VECTOR('',#458,10.);
#124=VECTOR('',#459,10.);
#125=VECTOR('',#466,10.);
#126=VECTOR('',#469,10.);
#127=VECTOR('',#476,10.);
#128=VECTOR('',#479,10.);
#129=VECTOR('',#482,2.55);
#130=VECTOR('',#485,2.55);
#131=CIRCLE('',#355,5.);
#132=CIRCLE('',#356,5.);
#133=CIRCLE('',#360,10.);
#134=CIRCLE('',#361,5.);
#135=CIRCLE('',#362,5.);
#136=CIRCLE('',#363,2.55);
#137=CIRCLE('',#364,2.55);
#138=CIRCLE('',#365,1.55);
#139=CIRCLE('',#366,1.55);
#140=CIRCLE('',#367,1.54999999999999);
#141=CIRCLE('',#370,1.54999999999999);
#142=CIRCLE('',#372,1.55);
#143=CIRCLE('',#374,1.55);
#144=CIRCLE('',#376,5.);
#145=CIRCLE('',#379,10.);
#146=CIRCLE('',#381,5.);
#147=CIRCLE('',#382,2.55);
#148=CIRCLE('',#383,2.55);
#149=VERTEX_POINT('',#490);
#150=VERTEX_POINT('',#491);
#151=VERTEX_POINT('',#493);
#152=VERTEX_POINT('',#495);
#153=VERTEX_POINT('',#499);
#154=VERTEX_POINT('',#501);
#155=VERTEX_POINT('',#505);
#156=VERTEX_POINT('',#507);
#157=VERTEX_POINT('',#511);
#158=VERTEX_POINT('',#513);
#159=VERTEX_POINT('',#515);
#160=VERTEX_POINT('',#517);
#161=VERTEX_POINT('',#519);
#162=VERTEX_POINT('',#521);
#163=VERTEX_POINT('',#524);
#164=VERTEX_POINT('',#526);
#165=VERTEX_POINT('',#528);
#166=VERTEX_POINT('',#530);
#167=VERTEX_POINT('',#532);
#168=VERTEX_POINT('',#535);
#169=VERTEX_POINT('',#539);
#170=VERTEX_POINT('',#543);
#171=VERTEX_POINT('',#547);
#172=VERTEX_POINT('',#551);
#173=VERTEX_POINT('',#552);
#174=VERTEX_POINT('',#557);
#175=VERTEX_POINT('',#563);
#176=VERTEX_POINT('',#565);
#177=VERTEX_POINT('',#568);
#178=VERTEX_POINT('',#570);
#179=EDGE_CURVE('',#149,#150,#131,.T.);
#180=EDGE_CURVE('',#151,#149,#77,.T.);
#181=EDGE_CURVE('',#152,#151,#132,.T.);
#182=EDGE_CURVE('',#152,#150,#78,.T.);
#183=EDGE_CURVE('',#150,#153,#79,.T.);
#184=EDGE_CURVE('',#154,#152,#80,.T.);
#185=EDGE_CURVE('',#153,#154,#81,.T.);
#186=EDGE_CURVE('',#155,#149,#82,.T.);
#187=EDGE_CURVE('',#156,#155,#83,.T.);
#188=EDGE_CURVE('',#151,#156,#84,.T.);
#189=EDGE_CURVE('',#153,#157,#85,.T.);
#190=EDGE_CURVE('',#157,#158,#133,.T.);
#191=EDGE_CURVE('',#158,#159,#86,.T.);
#192=EDGE_CURVE('',#159,#160,#134,.T.);
#193=EDGE_CURVE('',#160,#161,#87,.T.);
#194=EDGE_CURVE('',#162,#161,#135,.T.);
#195=EDGE_CURVE('',#162,#155,#88,.T.);
#196=EDGE_CURVE('',#163,#163,#136,.T.);
#197=EDGE_CURVE('',#164,#164,#137,.T.);
#198=EDGE_CURVE('',#165,#165,#138,.T.);
#199=EDGE_CURVE('',#166,#166,#139,.T.);
#200=EDGE_CURVE('',#167,#167,#140,.T.);
#201=EDGE_CURVE('',#154,#168,#89,.T.);
#202=EDGE_CURVE('',#168,#157,#90,.T.);
#203=EDGE_CURVE('',#167,#169,#91,.T.);
#204=EDGE_CURVE('',#169,#169,#141,.T.);
#205=EDGE_CURVE('',#166,#170,#92,.T.);
#206=EDGE_CURVE('',#170,#170,#142,.T.);
#207=EDGE_CURVE('',#165,#171,#93,.T.);
#208=EDGE_CURVE('',#171,#171,#143,.T.);
#209=EDGE_CURVE('',#172,#173,#144,.T.);
#210=EDGE_CURVE('',#172,#160,#94,.T.);
#211=EDGE_CURVE('',#173,#159,#95,.T.);
#212=EDGE_CURVE('',#173,#174,#96,.T.);
#213=EDGE_CURVE('',#174,#158,#97,.T.);
#214=EDGE_CURVE('',#174,#168,#145,.T.);
#215=EDGE_CURVE('',#156,#175,#98,.T.);
#216=EDGE_CURVE('',#175,#176,#146,.T.);
#217=EDGE_CURVE('',#176,#172,#99,.T.);
#218=EDGE_CURVE('',#177,#177,#147,.T.);
#219=EDGE_CURVE('',#178,#178,#148,.T.);
#220=EDGE_CURVE('',#161,#176,#100,.T.);
#221=EDGE_CURVE('',#175,#162,#101,.T.);
#222=EDGE_CURVE('',#177,#163,#102,.T.);
#223=EDGE_CURVE('',#178,#164,#103,.T.);
#224=ORIENTED_EDGE('',*,*,#179,.F.);
#225=ORIENTED_EDGE('',*,*,#180,.F.);
#226=ORIENTED_EDGE('',*,*,#181,.F.);
#227=ORIENTED_EDGE('',*,*,#182,.T.);
#228=ORIENTED_EDGE('',*,*,#183,.F.);
#229=ORIENTED_EDGE('',*,*,#182,.F.);
#230=ORIENTED_EDGE('',*,*,#184,.F.);
#231=ORIENTED_EDGE('',*,*,#185,.F.);
#232=ORIENTED_EDGE('',*,*,#186,.F.);
#233=ORIENTED_EDGE('',*,*,#187,.F.);
#234=ORIENTED_EDGE('',*,*,#188,.F.);
#235=ORIENTED_EDGE('',*,*,#180,.T.);
#236=ORIENTED_EDGE('',*,*,#186,.T.);
#237=ORIENTED_EDGE('',*,*,#179,.T.);
#238=ORIENTED_EDGE('',*,*,#183,.T.);
#239=ORIENTED_EDGE('',*,*,#189,.T.);
#240=ORIENTED_EDGE('',*,*,#190,.T.);
#241=ORIENTED_EDGE('',*,*,#191,.T.);
#242=ORIENTED_EDGE('',*,*,#192,.T.);
#243=ORIENTED_EDGE('',*,*,#193,.T.);
#244=ORIENTED_EDGE('',*,*,#194,.F.);
#245=ORIENTED_EDGE('',*,*,#195,.T.);
#246=ORIENTED_EDGE('',*,*,#196,.F.);
#247=ORIENTED_EDGE('',*,*,#197,.F.);
#248=ORIENTED_EDGE('',*,*,#198,.T.);
#249=ORIENTED_EDGE('',*,*,#199,.T.);
#250=ORIENTED_EDGE('',*,*,#200,.T.);
#251=ORIENTED_EDGE('',*,*,#185,.T.);
#252=ORIENTED_EDGE('',*,*,#201,.T.);
#253=ORIENTED_EDGE('',*,*,#202,.T.);
#254=ORIENTED_EDGE('',*,*,#189,.F.);
#255=ORIENTED_EDGE('',*,*,#200,.F.);
#256=ORIENTED_EDGE('',*,*,#203,.T.);
#257=ORIENTED_EDGE('',*,*,#204,.F.);
#258=ORIENTED_EDGE('',*,*,#203,.F.);
#259=ORIENTED_EDGE('',*,*,#199,.F.);
#260=ORIENTED_EDGE('',*,*,#205,.T.);
#261=ORIENTED_EDGE('',*,*,#206,.F.);
#262=ORIENTED_EDGE('',*,*,#205,.F.);
#263=ORIENTED_EDGE('',*,*,#198,.F.);
#264=ORIENTED_EDGE('',*,*,#207,.T.);
#265=ORIENTED_EDGE('',*,*,#208,.F.);
#266=ORIENTED_EDGE('',*,*,#207,.F.);
#267=ORIENTED_EDGE('',*,*,#209,.F.);
#268=ORIENTED_EDGE('',*,*,#210,.T.);
#269=ORIENTED_EDGE('',*,*,#192,.F.);
#270=ORIENTED_EDGE('',*,*,#211,.F.);
#271=ORIENTED_EDGE('',*,*,#212,.F.);
#272=ORIENTED_EDGE('',*,*,#211,.T.);
#273=ORIENTED_EDGE('',*,*,#191,.F.);
#274=ORIENTED_EDGE('',*,*,#213,.F.);
#275=ORIENTED_EDGE('',*,*,#214,.F.);
#276=ORIENTED_EDGE('',*,*,#213,.T.);
#277=ORIENTED_EDGE('',*,*,#190,.F.);
#278=ORIENTED_EDGE('',*,*,#202,.F.);
#279=ORIENTED_EDGE('',*,*,#188,.T.);
#280=ORIENTED_EDGE('',*,*,#215,.T.);
#281=ORIENTED_EDGE('',*,*,#216,.T.);
#282=ORIENTED_EDGE('',*,*,#217,.T.);
#283=ORIENTED_EDGE('',*,*,#209,.T.);
#284=ORIENTED_EDGE('',*,*,#212,.T.);
#285=ORIENTED_EDGE('',*,*,#214,.T.);
#286=ORIENTED_EDGE('',*,*,#201,.F.);
#287=ORIENTED_EDGE('',*,*,#184,.T.);
#288=ORIENTED_EDGE('',*,*,#181,.T.);
#289=ORIENTED_EDGE('',*,*,#204,.T.);
#290=ORIENTED_EDGE('',*,*,#206,.T.);
#291=ORIENTED_EDGE('',*,*,#208,.T.);
#292=ORIENTED_EDGE('',*,*,#218,.T.);
#293=ORIENTED_EDGE('',*,*,#219,.T.);
#294=ORIENTED_EDGE('',*,*,#217,.F.);
#295=ORIENTED_EDGE('',*,*,#220,.F.);
#296=ORIENTED_EDGE('',*,*,#193,.F.);
#297=ORIENTED_EDGE('',*,*,#210,.F.);
#298=ORIENTED_EDGE('',*,*,#187,.T.);
#299=ORIENTED_EDGE('',*,*,#195,.F.);
#300=ORIENTED_EDGE('',*,*,#221,.F.);
#301=ORIENTED_EDGE('',*,*,#215,.F.);
#302=ORIENTED_EDGE('',*,*,#218,.F.);
#303=ORIENTED_EDGE('',*,*,#222,.T.);
#304=ORIENTED_EDGE('',*,*,#196,.T.);
#305=ORIENTED_EDGE('',*,*,#222,.F.);
#306=ORIENTED_EDGE('',*,*,#219,.F.);
#307=ORIENTED_EDGE('',*,*,#223,.T.);
#308=ORIENTED_EDGE('',*,*,#197,.T.);
#309=ORIENTED_EDGE('',*,*,#223,.F.);
#310=ORIENTED_EDGE('',*,*,#221,.T.);
#311=ORIENTED_EDGE('',*,*,#194,.T.);
#312=ORIENTED_EDGE('',*,*,#220,.T.);
#313=ORIENTED_EDGE('',*,*,#216,.F.);
#314=CYLINDRICAL_SURFACE('',#354,5.);
#315=CYLINDRICAL_SURFACE('',#369,1.54999999999999);
#316=CYLINDRICAL_SURFACE('',#371,1.55);
#317=CYLINDRICAL_SURFACE('',#373,1.55);
#318=CYLINDRICAL_SURFACE('',#375,5.);
#319=CYLINDRICAL_SURFACE('',#378,10.);
#320=CYLINDRICAL_SURFACE('',#386,2.55);
#321=CYLINDRICAL_SURFACE('',#387,2.55);
#322=CYLINDRICAL_SURFACE('',#388,5.);
#323=ADVANCED_FACE('',(#33),#314,.T.);
#324=ADVANCED_FACE('',(#34),#25,.F.);
#325=ADVANCED_FACE('',(#35),#26,.F.);
#326=ADVANCED_FACE('',(#36,#15,#16,#17,#18,#19),#27,.F.);
#327=ADVANCED_FACE('',(#37),#28,.T.);
#328=ADVANCED_FACE('',(#38),#315,.F.);
#329=ADVANCED_FACE('',(#39),#316,.F.);
#330=ADVANCED_FACE('',(#40),#317,.F.);
#331=ADVANCED_FACE('',(#41),#318,.T.);
#332=ADVANCED_FACE('',(#42),#29,.T.);
#333=ADVANCED_FACE('',(#43),#319,.T.);
#334=ADVANCED_FACE('',(#44,#20,#21,#22,#23,#24),#30,.T.);
#335=ADVANCED_FACE('',(#45),#31,.T.);
#336=ADVANCED_FACE('',(#46),#32,.T.);
#337=ADVANCED_FACE('',(#47),#320,.F.);
#338=ADVANCED_FACE('',(#48),#321,.F.);
#339=ADVANCED_FACE('',(#49),#322,.T.);
#340=CLOSED_SHELL('',(#323,#324,#325,#326,#327,#328,#329,#330,#331,#332,
#333,#334,#335,#336,#337,#338,#339));
#341=DERIVED_UNIT_ELEMENT(#343,1.);
#342=DERIVED_UNIT_ELEMENT(#586,-3.);
#343=(
MASS_UNIT()
NAMED_UNIT(*)
SI_UNIT(.KILO.,.GRAM.)
);
#344=DERIVED_UNIT((#341,#342));
#345=MEASURE_REPRESENTATION_ITEM('density measure',
POSITIVE_RATIO_MEASURE(7850.),#344);
#346=PROPERTY_DEFINITION_REPRESENTATION(#351,#348);
#347=PROPERTY_DEFINITION_REPRESENTATION(#352,#349);
#348=REPRESENTATION('material name',(#350),#583);
#349=REPRESENTATION('density',(#345),#583);
#350=DESCRIPTIVE_REPRESENTATION_ITEM('Steel','Steel');
#351=PROPERTY_DEFINITION('material property','material name',#593);
#352=PROPERTY_DEFINITION('material property','density of part',#593);
#353=AXIS2_PLACEMENT_3D('',#488,#389,#390);
#354=AXIS2_PLACEMENT_3D('',#489,#391,#392);
#355=AXIS2_PLACEMENT_3D('',#492,#393,#394);
#356=AXIS2_PLACEMENT_3D('',#496,#396,#397);
#357=AXIS2_PLACEMENT_3D('',#498,#399,#400);
#358=AXIS2_PLACEMENT_3D('',#504,#404,#405);
#359=AXIS2_PLACEMENT_3D('',#510,#409,#410);
#360=AXIS2_PLACEMENT_3D('',#514,#412,#413);
#361=AXIS2_PLACEMENT_3D('',#518,#415,#416);
#362=AXIS2_PLACEMENT_3D('',#522,#418,#419);
#363=AXIS2_PLACEMENT_3D('',#525,#421,#422);
#364=AXIS2_PLACEMENT_3D('',#527,#423,#424);
#365=AXIS2_PLACEMENT_3D('',#529,#425,#426);
#366=AXIS2_PLACEMENT_3D('',#531,#427,#428);
#367=AXIS2_PLACEMENT_3D('',#533,#429,#430);
#368=AXIS2_PLACEMENT_3D('',#534,#431,#432);
#369=AXIS2_PLACEMENT_3D('',#538,#435,#436);
#370=AXIS2_PLACEMENT_3D('',#541,#438,#439);
#371=AXIS2_PLACEMENT_3D('',#542,#440,#441);
#372=AXIS2_PLACEMENT_3D('',#545,#443,#444);
#373=AXIS2_PLACEMENT_3D('',#546,#445,#446);
#374=AXIS2_PLACEMENT_3D('',#549,#448,#449);
#375=AXIS2_PLACEMENT_3D('',#550,#450,#451);
#376=AXIS2_PLACEMENT_3D('',#553,#452,#453);
#377=AXIS2_PLACEMENT_3D('',#556,#456,#457);
#378=AXIS2_PLACEMENT_3D('',#560,#460,#461);
#379=AXIS2_PLACEMENT_3D('',#561,#462,#463);
#380=AXIS2_PLACEMENT_3D('',#562,#464,#465);
#381=AXIS2_PLACEMENT_3D('',#566,#467,#468);
#382=AXIS2_PLACEMENT_3D('',#569,#470,#471);
#383=AXIS2_PLACEMENT_3D('',#571,#472,#473);
#384=AXIS2_PLACEMENT_3D('',#572,#474,#475);
#385=AXIS2_PLACEMENT_3D('',#574,#477,#478);
#386=AXIS2_PLACEMENT_3D('',#576,#480,#481);
#387=AXIS2_PLACEMENT_3D('',#578,#483,#484);
#388=AXIS2_PLACEMENT_3D('',#580,#486,#487);
#389=DIRECTION('axis',(0.,0.,1.));
#390=DIRECTION('refdir',(1.,0.,0.));
#391=DIRECTION('center_axis',(0.,0.,-1.));
#392=DIRECTION('ref_axis',(-1.,0.,0.));
#393=DIRECTION('center_axis',(0.,0.,-1.));
#394=DIRECTION('ref_axis',(-1.,0.,0.));
#395=DIRECTION('',(0.,0.,-1.));
#396=DIRECTION('center_axis',(0.,0.,1.));
#397=DIRECTION('ref_axis',(-1.,0.,0.));
#398=DIRECTION('',(0.,0.,-1.));
#399=DIRECTION('center_axis',(0.374688582482566,-0.927150724616664,0.));
#400=DIRECTION('ref_axis',(-0.927150724616664,-0.374688582482566,0.));
#401=DIRECTION('',(0.927150724616664,0.374688582482566,0.));
#402=DIRECTION('',(-0.927150724616664,-0.374688582482566,0.));
#403=DIRECTION('',(0.,0.,1.));
#404=DIRECTION('center_axis',(-0.0680043217975808,0.997685026557406,0.));
#405=DIRECTION('ref_axis',(0.997685026557406,0.0680043217975808,0.));
#406=DIRECTION('',(-0.997685026557406,-0.0680043217975808,0.));
#407=DIRECTION('',(0.,0.,-1.));
#408=DIRECTION('',(0.997685026557406,0.0680043217975808,0.));
#409=DIRECTION('center_axis',(0.,0.,1.));
#410=DIRECTION('ref_axis',(1.,0.,0.));
#411=DIRECTION('',(0.937094247038069,0.349076456049609,0.));
#412=DIRECTION('center_axis',(0.,0.,-1.));
#413=DIRECTION('ref_axis',(-1.11022302462515E-15,1.,0.));
#414=DIRECTION('',(1.,3.86627797680521E-16,0.));
#415=DIRECTION('center_axis',(0.,0.,-1.));
#416=DIRECTION('ref_axis',(1.,-8.88178419700126E-16,0.));
#417=DIRECTION('',(2.22044604925031E-16,-1.,0.));
#418=DIRECTION('center_axis',(0.,0.,1.));
#419=DIRECTION('ref_axis',(0.,-1.,0.));
#420=DIRECTION('',(-0.995981306335459,-0.0895613612575863,0.));
#421=DIRECTION('center_axis',(0.,0.,-1.));
#422=DIRECTION('ref_axis',(1.,0.,0.));
#423=DIRECTION('center_axis',(0.,0.,-1.));
#424=DIRECTION('ref_axis',(1.,0.,0.));
#425=DIRECTION('center_axis',(0.,0.,1.));
#426=DIRECTION('ref_axis',(-1.,0.,0.));
#427=DIRECTION('center_axis',(0.,0.,1.));
#428=DIRECTION('ref_axis',(-1.,0.,0.));
#429=DIRECTION('center_axis',(0.,0.,1.));
#430=DIRECTION('ref_axis',(-1.,0.,0.));
#431=DIRECTION('center_axis',(-0.349076456049609,0.937094247038069,0.));
#432=DIRECTION('ref_axis',(-0.937094247038069,-0.349076456049609,0.));
#433=DIRECTION('',(0.937094247038069,0.349076456049609,0.));
#434=DIRECTION('',(0.,0.,-1.));
#435=DIRECTION('center_axis',(0.,0.,-1.));
#436=DIRECTION('ref_axis',(-1.,0.,0.));
#437=DIRECTION('',(0.,0.,1.));
#438=DIRECTION('center_axis',(0.,0.,-1.));
#439=DIRECTION('ref_axis',(-1.,0.,0.));
#440=DIRECTION('center_axis',(0.,0.,-1.));
#441=DIRECTION('ref_axis',(-1.,0.,0.));
#442=DIRECTION('',(0.,0.,1.));
#443=DIRECTION('center_axis',(0.,0.,-1.));
#444=DIRECTION('ref_axis',(-1.,0.,0.));
#445=DIRECTION('center_axis',(0.,0.,-1.));
#446=DIRECTION('ref_axis',(-1.,0.,0.));
#447=DIRECTION('',(0.,0.,1.));
#448=DIRECTION('center_axis',(0.,0.,-1.));
#449=DIRECTION('ref_axis',(-1.,0.,0.));
#450=DIRECTION('center_axis',(0.,0.,-1.));
#451=DIRECTION('ref_axis',(1.,-8.88178419700126E-16,0.));
#452=DIRECTION('center_axis',(0.,0.,1.));
#453=DIRECTION('ref_axis',(1.,-8.88178419700126E-16,0.));
#454=DIRECTION('',(0.,0.,-1.));
#455=DIRECTION('',(0.,0.,-1.));
#456=DIRECTION('center_axis',(-3.86627797680521E-16,1.,0.));
#457=DIRECTION('ref_axis',(1.,3.86627797680521E-16,0.));
#458=DIRECTION('',(-1.,-3.86627797680521E-16,0.));
#459=DIRECTION('',(0.,0.,-1.));
#460=DIRECTION('center_axis',(0.,0.,-1.));
#461=DIRECTION('ref_axis',(-1.11022302462515E-15,1.,0.));
#462=DIRECTION('center_axis',(0.,0.,1.));
#463=DIRECTION('ref_axis',(-1.11022302462515E-15,1.,0.));
#464=DIRECTION('center_axis',(0.,0.,1.));
#465=DIRECTION('ref_axis',(1.,0.,0.));
#466=DIRECTION('',(0.995981306335459,0.0895613612575863,0.));
#467=DIRECTION('center_axis',(0.,0.,1.));
#468=DIRECTION('ref_axis',(0.,-1.,0.));
#469=DIRECTION('',(-2.22044604925031E-16,1.,0.));
#470=DIRECTION('center_axis',(0.,0.,-1.));
#471=DIRECTION('ref_axis',(1.,0.,0.));
#472=DIRECTION('center_axis',(0.,0.,-1.));
#473=DIRECTION('ref_axis',(1.,0.,0.));
#474=DIRECTION('center_axis',(1.,2.22044604925031E-16,0.));
#475=DIRECTION('ref_axis',(-2.22044604925031E-16,1.,0.));
#476=DIRECTION('',(0.,0.,1.));
#477=DIRECTION('center_axis',(0.0895613612575863,-0.995981306335459,0.));
#478=DIRECTION('ref_axis',(-0.995981306335459,-0.0895613612575863,0.));
#479=DIRECTION('',(0.,0.,-1.));
#480=DIRECTION('center_axis',(0.,0.,1.));
#481=DIRECTION('ref_axis',(1.,0.,0.));
#482=DIRECTION('',(0.,0.,-1.));
#483=DIRECTION('center_axis',(0.,0.,1.));
#484=DIRECTION('ref_axis',(1.,0.,0.));
#485=DIRECTION('',(0.,0.,-1.));
#486=DIRECTION('center_axis',(0.,0.,1.));
#487=DIRECTION('ref_axis',(0.,-1.,0.));
#488=CARTESIAN_POINT('',(0.,0.,0.));
#489=CARTESIAN_POINT('Origin',(-83.2241937994177,-7.0158583646788,3.175));
#490=CARTESIAN_POINT('',(-82.8841723101537,-12.0042835056265,0.));
#491=CARTESIAN_POINT('',(-85.0976365650453,-2.38010468227534,0.));
#492=CARTESIAN_POINT('Origin',(-83.2241937994177,-7.0158583646788,0.));
#493=CARTESIAN_POINT('',(-82.8841723101537,-12.0042835056265,3.175));
#494=CARTESIAN_POINT('',(-82.8841723101537,-12.0042835056265,3.175));
#495=CARTESIAN_POINT('',(-85.0976365650453,-2.38010468227534,3.175));
#496=CARTESIAN_POINT('Origin',(-83.2241937994177,-7.0158583646788,3.175));
#497=CARTESIAN_POINT('',(-85.0976365650453,-2.38010468227534,3.175));
#498=CARTESIAN_POINT('Origin',(-17.5361428508888,24.9234605720457,3.175));
#499=CARTESIAN_POINT('',(-17.5361428508888,24.9234605720457,0.));
#500=CARTESIAN_POINT('',(-30.6744659552218,19.6138819572031,0.));
#501=CARTESIAN_POINT('',(-17.5361428508888,24.9234605720457,3.175));
#502=CARTESIAN_POINT('',(-30.6744659552218,19.6138819572031,3.175));
#503=CARTESIAN_POINT('',(-17.5361428508884,24.9234605720459,1.5875));
#504=CARTESIAN_POINT('Origin',(-82.8841723101537,-12.0042835056265,3.175));
#505=CARTESIAN_POINT('',(9.44976639091589,-5.71060693123484,0.));
#506=CARTESIAN_POINT('',(-60.1761661691763,-10.4564577731696,0.));
#507=CARTESIAN_POINT('',(9.44976639091589,-5.71060693123484,3.175));
#508=CARTESIAN_POINT('',(9.4497663909228,-5.71060693123437,3.175));
#509=CARTESIAN_POINT('',(-60.1761661691763,-10.4564577731696,3.175));
#510=CARTESIAN_POINT('Origin',(-38.0841937994177,0.129141635321197,0.));
#511=CARTESIAN_POINT('',(-17.407399168064,24.971418809631,0.));
#512=CARTESIAN_POINT('',(-46.1241937994176,14.2741416353212,0.));
#513=CARTESIAN_POINT('',(-13.9166346075679,25.6004763392503,0.));
#514=CARTESIAN_POINT('Origin',(-13.9166346075679,15.6004763392503,0.));
#515=CARTESIAN_POINT('',(9.05580620058234,25.6004763392503,0.));
#516=CARTESIAN_POINT('',(9.05580620058234,25.6004763392503,0.));
#517=CARTESIAN_POINT('',(14.0558062005823,20.6004763392503,0.));
#518=CARTESIAN_POINT('Origin',(9.05580620058234,20.6004763392503,0.));
#519=CARTESIAN_POINT('',(14.0558062005823,-0.725858364678802,0.));
#520=CARTESIAN_POINT('',(14.0558062005823,9.2741416353212,0.));
#521=CARTESIAN_POINT('',(9.50348839701331,-5.70577610161503,0.));
#522=CARTESIAN_POINT('Origin',(9.05580620058235,-0.725858364678806,0.));
#523=CARTESIAN_POINT('',(-110.84825239951,-16.5281335764915,0.));
#524=CARTESIAN_POINT('',(-28.6941937994177,4.2741416353212,0.));
#525=CARTESIAN_POINT('Origin',(-26.1441937994177,4.2741416353212,0.));
#526=CARTESIAN_POINT('',(1.50580620058234,4.2741416353212,0.));
#527=CARTESIAN_POINT('Origin',(4.05580620058234,4.2741416353212,0.));
#528=CARTESIAN_POINT('',(-9.39419379941766,19.2741416353212,0.));
#529=CARTESIAN_POINT('Origin',(-10.9441937994177,19.2741416353212,0.));
#530=CARTESIAN_POINT('',(5.60580620058234,19.2741416353212,0.));
#531=CARTESIAN_POINT('Origin',(4.05580620058234,19.2741416353212,0.));
#532=CARTESIAN_POINT('',(-81.6741937994177,-7.0158583646788,0.));
#533=CARTESIAN_POINT('Origin',(-83.2241937994177,-7.0158583646788,0.));
#534=CARTESIAN_POINT('Origin',(-51.1903005091047,12.3869690464633,0.));
#535=CARTESIAN_POINT('',(-17.407399168064,24.971418809631,3.175));
#536=CARTESIAN_POINT('',(-46.1241937994176,14.2741416353212,3.175));
#537=CARTESIAN_POINT('',(-17.407399168064,24.971418809631,3.175));
#538=CARTESIAN_POINT('Origin',(-83.2241937994177,-7.0158583646788,3.175));
#539=CARTESIAN_POINT('',(-81.6741937994177,-7.0158583646788,3.175));
#540=CARTESIAN_POINT('',(-81.6741937994177,-7.0158583646788,3.175));
#541=CARTESIAN_POINT('Origin',(-83.2241937994177,-7.0158583646788,3.175));
#542=CARTESIAN_POINT('Origin',(4.05580620058234,19.2741416353212,3.175));
#543=CARTESIAN_POINT('',(5.60580620058234,19.2741416353212,3.175));
#544=CARTESIAN_POINT('',(5.60580620058234,19.2741416353212,3.175));
#545=CARTESIAN_POINT('Origin',(4.05580620058234,19.2741416353212,3.175));
#546=CARTESIAN_POINT('Origin',(-10.9441937994177,19.2741416353212,3.175));
#547=CARTESIAN_POINT('',(-9.39419379941766,19.2741416353212,3.175));
#548=CARTESIAN_POINT('',(-9.39419379941766,19.2741416353212,3.175));
#549=CARTESIAN_POINT('Origin',(-10.9441937994177,19.2741416353212,3.175));
#550=CARTESIAN_POINT('Origin',(9.05580620058234,20.6004763392503,3.175));
#551=CARTESIAN_POINT('',(14.0558062005823,20.6004763392503,3.175));
#552=CARTESIAN_POINT('',(9.05580620058234,25.6004763392503,3.175));
#553=CARTESIAN_POINT('Origin',(9.05580620058234,20.6004763392503,3.175));
#554=CARTESIAN_POINT('',(14.0558062005823,20.6004763392503,3.175));
#555=CARTESIAN_POINT('',(9.05580620058234,25.6004763392503,3.175));
#556=CARTESIAN_POINT('Origin',(-13.9166346075679,25.6004763392503,3.175));
#557=CARTESIAN_POINT('',(-13.9166346075679,25.6004763392503,3.175));
#558=CARTESIAN_POINT('',(9.05580620058234,25.6004763392503,3.175));
#559=CARTESIAN_POINT('',(-13.9166346075679,25.6004763392503,3.175));
#560=CARTESIAN_POINT('Origin',(-13.9166346075679,15.6004763392503,3.175));
#561=CARTESIAN_POINT('Origin',(-13.9166346075679,15.6004763392503,3.175));
#562=CARTESIAN_POINT('Origin',(-38.0841937994177,0.129141635321197,3.175));
#563=CARTESIAN_POINT('',(9.50348839701331,-5.70577610161503,3.175));
#564=CARTESIAN_POINT('',(-110.84825239951,-16.5281335764915,3.175));
#565=CARTESIAN_POINT('',(14.0558062005823,-0.725858364678802,3.175));
#566=CARTESIAN_POINT('Origin',(9.05580620058235,-0.725858364678806,3.175));
#567=CARTESIAN_POINT('',(14.0558062005823,9.2741416353212,3.175));
#568=CARTESIAN_POINT('',(-28.6941937994177,4.2741416353212,3.175));
#569=CARTESIAN_POINT('Origin',(-26.1441937994177,4.2741416353212,3.175));
#570=CARTESIAN_POINT('',(1.50580620058234,4.2741416353212,3.175));
#571=CARTESIAN_POINT('Origin',(4.05580620058234,4.2741416353212,3.175));
#572=CARTESIAN_POINT('Origin',(14.0558062005823,-0.725858364678802,0.));
#573=CARTESIAN_POINT('',(14.0558062005823,-0.725858364678802,0.));
#574=CARTESIAN_POINT('Origin',(9.50348839701331,-5.70577610161503,3.175));
#575=CARTESIAN_POINT('',(9.50348839701331,-5.70577610161503,3.175));
#576=CARTESIAN_POINT('Origin',(-26.1441937994177,4.2741416353212,0.));
#577=CARTESIAN_POINT('',(-28.6941937994177,4.2741416353212,0.));
#578=CARTESIAN_POINT('Origin',(4.05580620058234,4.2741416353212,0.));
#579=CARTESIAN_POINT('',(1.50580620058234,4.2741416353212,0.));
#580=CARTESIAN_POINT('Origin',(9.05580620058235,-0.725858364678806,0.));
#581=UNCERTAINTY_MEASURE_WITH_UNIT(LENGTH_MEASURE(0.01),#585,
'DISTANCE_ACCURACY_VALUE',
'Maximum model space distance between geometric entities at asserted c
onnectivities');
#582=UNCERTAINTY_MEASURE_WITH_UNIT(LENGTH_MEASURE(0.01),#585,
'DISTANCE_ACCURACY_VALUE',
'Maximum model space distance between geometric entities at asserted c
onnectivities');
#583=(
GEOMETRIC_REPRESENTATION_CONTEXT(3)
GLOBAL_UNCERTAINTY_ASSIGNED_CONTEXT((#581))
GLOBAL_UNIT_ASSIGNED_CONTEXT((#585,#587,#588))
REPRESENTATION_CONTEXT('','3D')
);
#584=(
GEOMETRIC_REPRESENTATION_CONTEXT(3)
GLOBAL_UNCERTAINTY_ASSIGNED_CONTEXT((#582))
GLOBAL_UNIT_ASSIGNED_CONTEXT((#585,#587,#588))
REPRESENTATION_CONTEXT('','3D')
);
#585=(
LENGTH_UNIT()
NAMED_UNIT(*)
SI_UNIT(.MILLI.,.METRE.)
);
#586=(
LENGTH_UNIT()
NAMED_UNIT(*)
SI_UNIT($,.METRE.)
);
#587=(
NAMED_UNIT(*)
PLANE_ANGLE_UNIT()
SI_UNIT($,.RADIAN.)
);
#588=(
NAMED_UNIT(*)
SI_UNIT($,.STERADIAN.)
SOLID_ANGLE_UNIT()
);
#589=SHAPE_DEFINITION_REPRESENTATION(#590,#591);
#590=PRODUCT_DEFINITION_SHAPE('',$,#593);
#591=SHAPE_REPRESENTATION('',(#353),#583);
#592=PRODUCT_DEFINITION_CONTEXT('part definition',#597,'design');
#593=PRODUCT_DEFINITION('(Unsaved)','(Unsaved)',#594,#592);
#594=PRODUCT_DEFINITION_FORMATION('',$,#599);
#595=PRODUCT_RELATED_PRODUCT_CATEGORY('(Unsaved)','(Unsaved)',(#599));
#596=APPLICATION_PROTOCOL_DEFINITION('international standard',
'automotive_design',2009,#597);
#597=APPLICATION_CONTEXT(
'Core Data for Automotive Mechanical Design Process');
#598=PRODUCT_CONTEXT('part definition',#597,'mechanical');
#599=PRODUCT('(Unsaved)','(Unsaved)',$,(#598));
#600=PRESENTATION_STYLE_ASSIGNMENT((#601));
#601=SURFACE_STYLE_USAGE(.BOTH.,#602);
#602=SURFACE_SIDE_STYLE('',(#603));
#603=SURFACE_STYLE_FILL_AREA(#604);
#604=FILL_AREA_STYLE('Steel - Satin',(#605));
#605=FILL_AREA_STYLE_COLOUR('Steel - Satin',#606);
#606=COLOUR_RGB('Steel - Satin',0.627450980392157,0.627450980392157,0.627450980392157);
ENDSEC;
END-ISO-10303-21;
