ISO-10303-21;
HEADER;
/* Generated by software containing ST-Developer
 * from STEP Tools, Inc. (www.steptools.com) 
 */

FILE_DESCRIPTION(
/* description */ (''),
/* implementation_level */ '2;1');

FILE_NAME(
/* name */ 'rear bed mount x2.step',
/* time_stamp */ '2025-06-28T00:45:35-07:00',
/* author */ (''),
/* organization */ (''),
/* preprocessor_version */ 'ST-DEVELOPER v20.1',
/* originating_system */ 'Autodesk Translation Framework v14.10.0.0',
/* authorisation */ '');

FILE_SCHEMA (('AUTOMOTIVE_DESIGN { 1 0 10303 214 3 1 1 }'));
ENDSEC;

DATA;
#10=MECHANICAL_DESIGN_GEOMETRIC_PRESENTATION_REPRESENTATION('',(#13),#584);
#11=SHAPE_REPRESENTATION_RELATIONSHIP('SRR','None',#591,#12);
#12=ADVANCED_BREP_SHAPE_REPRESENTATION('',(#14),#583);
#13=STYLED_ITEM('',(#600),#14);
#14=MANIFOLD_SOLID_BREP('Body1',#340);
#15=FACE_BOUND('',#73,.T.);
#16=FACE_BOUND('',#74,.T.);
#17=FACE_BOUND('',#75,.T.);
#18=FACE_BOUND('',#76,.T.);
#19=FACE_BOUND('',#77,.T.);
#20=FACE_BOUND('',#91,.T.);
#21=FACE_BOUND('',#92,.T.);
#22=FACE_BOUND('',#93,.T.);
#23=FACE_BOUND('',#94,.T.);
#24=FACE_BOUND('',#95,.T.);
#25=CIRCLE('',#357,5.);
#26=CIRCLE('',#358,5.);
#27=CIRCLE('',#360,5.00000000000003);
#28=CIRCLE('',#361,5.);
#29=CIRCLE('',#362,4.99999999999999);
#30=CIRCLE('',#363,2.55);
#31=CIRCLE('',#364,2.55);
#32=CIRCLE('',#365,1.6);
#33=CIRCLE('',#366,1.6);
#34=CIRCLE('',#367,1.55000000000001);
#35=CIRCLE('',#369,1.55000000000001);
#36=CIRCLE('',#371,1.6);
#37=CIRCLE('',#373,1.6);
#38=CIRCLE('',#375,2.55);
#39=CIRCLE('',#377,2.55);
#40=CIRCLE('',#380,5.);
#41=CIRCLE('',#383,5.00000000000003);
#42=CIRCLE('',#387,4.99999999999999);
#43=CYLINDRICAL_SURFACE('',#356,5.);
#44=CYLINDRICAL_SURFACE('',#368,1.55000000000001);
#45=CYLINDRICAL_SURFACE('',#370,1.6);
#46=CYLINDRICAL_SURFACE('',#372,1.6);
#47=CYLINDRICAL_SURFACE('',#374,2.55);
#48=CYLINDRICAL_SURFACE('',#376,2.55);
#49=CYLINDRICAL_SURFACE('',#379,5.);
#50=CYLINDRICAL_SURFACE('',#382,5.00000000000003);
#51=CYLINDRICAL_SURFACE('',#386,4.99999999999999);
#52=FACE_OUTER_BOUND('',#69,.T.);
#53=FACE_OUTER_BOUND('',#70,.T.);
#54=FACE_OUTER_BOUND('',#71,.T.);
#55=FACE_OUTER_BOUND('',#72,.T.);
#56=FACE_OUTER_BOUND('',#78,.T.);
#57=FACE_OUTER_BOUND('',#79,.T.);
#58=FACE_OUTER_BOUND('',#80,.T.);
#59=FACE_OUTER_BOUND('',#81,.T.);
#60=FACE_OUTER_BOUND('',#82,.T.);
#61=FACE_OUTER_BOUND('',#83,.T.);
#62=FACE_OUTER_BOUND('',#84,.T.);
#63=FACE_OUTER_BOUND('',#85,.T.);
#64=FACE_OUTER_BOUND('',#86,.T.);
#65=FACE_OUTER_BOUND('',#87,.T.);
#66=FACE_OUTER_BOUND('',#88,.T.);
#67=FACE_OUTER_BOUND('',#89,.T.);
#68=FACE_OUTER_BOUND('',#90,.T.);
#69=EDGE_LOOP('',(#225,#226,#227,#228));
#70=EDGE_LOOP('',(#229,#230,#231,#232));
#71=EDGE_LOOP('',(#233,#234,#235,#236));
#72=EDGE_LOOP('',(#237,#238,#239,#240,#241,#242,#243,#244,#245,#246));
#73=EDGE_LOOP('',(#247));
#74=EDGE_LOOP('',(#248));
#75=EDGE_LOOP('',(#249));
#76=EDGE_LOOP('',(#250));
#77=EDGE_LOOP('',(#251));
#78=EDGE_LOOP('',(#252,#253,#254,#255));
#79=EDGE_LOOP('',(#256,#257,#258,#259));
#80=EDGE_LOOP('',(#260,#261,#262,#263));
#81=EDGE_LOOP('',(#264,#265,#266,#267));
#82=EDGE_LOOP('',(#268,#269,#270,#271));
#83=EDGE_LOOP('',(#272,#273,#274,#275));
#84=EDGE_LOOP('',(#276,#277,#278,#279));
#85=EDGE_LOOP('',(#280,#281,#282,#283));
#86=EDGE_LOOP('',(#284,#285,#286,#287));
#87=EDGE_LOOP('',(#288,#289,#290,#291));
#88=EDGE_LOOP('',(#292,#293,#294,#295));
#89=EDGE_LOOP('',(#296,#297,#298,#299));
#90=EDGE_LOOP('',(#300,#301,#302,#303,#304,#305,#306,#307,#308,#309));
#91=EDGE_LOOP('',(#310));
#92=EDGE_LOOP('',(#311));
#93=EDGE_LOOP('',(#312));
#94=EDGE_LOOP('',(#313));
#95=EDGE_LOOP('',(#314));
#96=LINE('',#492,#123);
#97=LINE('',#494,#124);
#98=LINE('',#496,#125);
#99=LINE('',#497,#126);
#100=LINE('',#501,#127);
#101=LINE('',#503,#128);
#102=LINE('',#505,#129);
#103=LINE('',#506,#130);
#104=LINE('',#512,#131);
#105=LINE('',#516,#132);
#106=LINE('',#520,#133);
#107=LINE('',#523,#134);
#108=LINE('',#537,#135);
#109=LINE('',#540,#136);
#110=LINE('',#544,#137);
#111=LINE('',#548,#138);
#112=LINE('',#552,#139);
#113=LINE('',#557,#140);
#114=LINE('',#558,#141);
#115=LINE('',#559,#142);
#116=LINE('',#563,#143);
#117=LINE('',#566,#144);
#118=LINE('',#567,#145);
#119=LINE('',#571,#146);
#120=LINE('',#573,#147);
#121=LINE('',#576,#148);
#122=LINE('',#577,#149);
#123=VECTOR('',#393,10.);
#124=VECTOR('',#394,10.);
#125=VECTOR('',#395,10.);
#126=VECTOR('',#396,10.);
#127=VECTOR('',#399,10.);
#128=VECTOR('',#400,10.);
#129=VECTOR('',#401,10.);
#130=VECTOR('',#402,10.);
#131=VECTOR('',#411,10.);
#132=VECTOR('',#414,10.);
#133=VECTOR('',#417,10.);
#134=VECTOR('',#420,10.);
#135=VECTOR('',#435,1.55000000000001);
#136=VECTOR('',#438,1.6);
#137=VECTOR('',#443,1.6);
#138=VECTOR('',#448,2.55);
#139=VECTOR('',#453,2.55);
#140=VECTOR('',#458,10.);
#141=VECTOR('',#459,10.);
#142=VECTOR('',#460,10.);
#143=VECTOR('',#465,10.);
#144=VECTOR('',#468,10.);
#145=VECTOR('',#469,10.);
#146=VECTOR('',#474,10.);
#147=VECTOR('',#477,10.);
#148=VECTOR('',#480,10.);
#149=VECTOR('',#481,10.);
#150=VERTEX_POINT('',#490);
#151=VERTEX_POINT('',#491);
#152=VERTEX_POINT('',#493);
#153=VERTEX_POINT('',#495);
#154=VERTEX_POINT('',#499);
#155=VERTEX_POINT('',#500);
#156=VERTEX_POINT('',#502);
#157=VERTEX_POINT('',#504);
#158=VERTEX_POINT('',#511);
#159=VERTEX_POINT('',#513);
#160=VERTEX_POINT('',#515);
#161=VERTEX_POINT('',#517);
#162=VERTEX_POINT('',#519);
#163=VERTEX_POINT('',#521);
#164=VERTEX_POINT('',#524);
#165=VERTEX_POINT('',#526);
#166=VERTEX_POINT('',#528);
#167=VERTEX_POINT('',#530);
#168=VERTEX_POINT('',#532);
#169=VERTEX_POINT('',#535);
#170=VERTEX_POINT('',#539);
#171=VERTEX_POINT('',#543);
#172=VERTEX_POINT('',#547);
#173=VERTEX_POINT('',#551);
#174=VERTEX_POINT('',#555);
#175=VERTEX_POINT('',#556);
#176=VERTEX_POINT('',#561);
#177=VERTEX_POINT('',#565);
#178=VERTEX_POINT('',#569);
#179=VERTEX_POINT('',#575);
#180=EDGE_CURVE('',#150,#151,#96,.T.);
#181=EDGE_CURVE('',#152,#150,#97,.T.);
#182=EDGE_CURVE('',#153,#152,#98,.T.);
#183=EDGE_CURVE('',#151,#153,#99,.T.);
#184=EDGE_CURVE('',#154,#155,#100,.T.);
#185=EDGE_CURVE('',#156,#154,#101,.T.);
#186=EDGE_CURVE('',#157,#156,#102,.T.);
#187=EDGE_CURVE('',#157,#155,#103,.T.);
#188=EDGE_CURVE('',#155,#150,#25,.T.);
#189=EDGE_CURVE('',#152,#157,#26,.T.);
#190=EDGE_CURVE('',#156,#158,#104,.T.);
#191=EDGE_CURVE('',#158,#159,#27,.T.);
#192=EDGE_CURVE('',#159,#160,#105,.T.);
#193=EDGE_CURVE('',#160,#161,#28,.T.);
#194=EDGE_CURVE('',#161,#162,#106,.T.);
#195=EDGE_CURVE('',#162,#163,#29,.T.);
#196=EDGE_CURVE('',#163,#153,#107,.T.);
#197=EDGE_CURVE('',#164,#164,#30,.T.);
#198=EDGE_CURVE('',#165,#165,#31,.T.);
#199=EDGE_CURVE('',#166,#166,#32,.T.);
#200=EDGE_CURVE('',#167,#167,#33,.T.);
#201=EDGE_CURVE('',#168,#168,#34,.T.);
#202=EDGE_CURVE('',#169,#169,#35,.T.);
#203=EDGE_CURVE('',#169,#168,#108,.T.);
#204=EDGE_CURVE('',#167,#170,#109,.T.);
#205=EDGE_CURVE('',#170,#170,#36,.T.);
#206=EDGE_CURVE('',#166,#171,#110,.T.);
#207=EDGE_CURVE('',#171,#171,#37,.T.);
#208=EDGE_CURVE('',#164,#172,#111,.T.);
#209=EDGE_CURVE('',#172,#172,#38,.T.);
#210=EDGE_CURVE('',#165,#173,#112,.T.);
#211=EDGE_CURVE('',#173,#173,#39,.T.);
#212=EDGE_CURVE('',#174,#175,#113,.T.);
#213=EDGE_CURVE('',#174,#162,#114,.T.);
#214=EDGE_CURVE('',#175,#161,#115,.T.);
#215=EDGE_CURVE('',#176,#175,#40,.T.);
#216=EDGE_CURVE('',#176,#160,#116,.T.);
#217=EDGE_CURVE('',#177,#176,#117,.T.);
#218=EDGE_CURVE('',#177,#159,#118,.T.);
#219=EDGE_CURVE('',#178,#177,#41,.T.);
#220=EDGE_CURVE('',#178,#158,#119,.T.);
#221=EDGE_CURVE('',#178,#154,#120,.T.);
#222=EDGE_CURVE('',#179,#163,#121,.T.);
#223=EDGE_CURVE('',#179,#151,#122,.T.);
#224=EDGE_CURVE('',#174,#179,#42,.T.);
#225=ORIENTED_EDGE('',*,*,#180,.F.);
#226=ORIENTED_EDGE('',*,*,#181,.F.);
#227=ORIENTED_EDGE('',*,*,#182,.F.);
#228=ORIENTED_EDGE('',*,*,#183,.F.);
#229=ORIENTED_EDGE('',*,*,#184,.F.);
#230=ORIENTED_EDGE('',*,*,#185,.F.);
#231=ORIENTED_EDGE('',*,*,#186,.F.);
#232=ORIENTED_EDGE('',*,*,#187,.T.);
#233=ORIENTED_EDGE('',*,*,#188,.F.);
#234=ORIENTED_EDGE('',*,*,#187,.F.);
#235=ORIENTED_EDGE('',*,*,#189,.F.);
#236=ORIENTED_EDGE('',*,*,#181,.T.);
#237=ORIENTED_EDGE('',*,*,#182,.T.);
#238=ORIENTED_EDGE('',*,*,#189,.T.);
#239=ORIENTED_EDGE('',*,*,#186,.T.);
#240=ORIENTED_EDGE('',*,*,#190,.T.);
#241=ORIENTED_EDGE('',*,*,#191,.T.);
#242=ORIENTED_EDGE('',*,*,#192,.T.);
#243=ORIENTED_EDGE('',*,*,#193,.T.);
#244=ORIENTED_EDGE('',*,*,#194,.T.);
#245=ORIENTED_EDGE('',*,*,#195,.T.);
#246=ORIENTED_EDGE('',*,*,#196,.T.);
#247=ORIENTED_EDGE('',*,*,#197,.T.);
#248=ORIENTED_EDGE('',*,*,#198,.T.);
#249=ORIENTED_EDGE('',*,*,#199,.T.);
#250=ORIENTED_EDGE('',*,*,#200,.T.);
#251=ORIENTED_EDGE('',*,*,#201,.T.);
#252=ORIENTED_EDGE('',*,*,#202,.F.);
#253=ORIENTED_EDGE('',*,*,#203,.T.);
#254=ORIENTED_EDGE('',*,*,#201,.F.);
#255=ORIENTED_EDGE('',*,*,#203,.F.);
#256=ORIENTED_EDGE('',*,*,#200,.F.);
#257=ORIENTED_EDGE('',*,*,#204,.T.);
#258=ORIENTED_EDGE('',*,*,#205,.F.);
#259=ORIENTED_EDGE('',*,*,#204,.F.);
#260=ORIENTED_EDGE('',*,*,#199,.F.);
#261=ORIENTED_EDGE('',*,*,#206,.T.);
#262=ORIENTED_EDGE('',*,*,#207,.F.);
#263=ORIENTED_EDGE('',*,*,#206,.F.);
#264=ORIENTED_EDGE('',*,*,#197,.F.);
#265=ORIENTED_EDGE('',*,*,#208,.T.);
#266=ORIENTED_EDGE('',*,*,#209,.T.);
#267=ORIENTED_EDGE('',*,*,#208,.F.);
#268=ORIENTED_EDGE('',*,*,#198,.F.);
#269=ORIENTED_EDGE('',*,*,#210,.T.);
#270=ORIENTED_EDGE('',*,*,#211,.T.);
#271=ORIENTED_EDGE('',*,*,#210,.F.);
#272=ORIENTED_EDGE('',*,*,#212,.F.);
#273=ORIENTED_EDGE('',*,*,#213,.T.);
#274=ORIENTED_EDGE('',*,*,#194,.F.);
#275=ORIENTED_EDGE('',*,*,#214,.F.);
#276=ORIENTED_EDGE('',*,*,#215,.T.);
#277=ORIENTED_EDGE('',*,*,#214,.T.);
#278=ORIENTED_EDGE('',*,*,#193,.F.);
#279=ORIENTED_EDGE('',*,*,#216,.F.);
#280=ORIENTED_EDGE('',*,*,#217,.T.);
#281=ORIENTED_EDGE('',*,*,#216,.T.);
#282=ORIENTED_EDGE('',*,*,#192,.F.);
#283=ORIENTED_EDGE('',*,*,#218,.F.);
#284=ORIENTED_EDGE('',*,*,#219,.T.);
#285=ORIENTED_EDGE('',*,*,#218,.T.);
#286=ORIENTED_EDGE('',*,*,#191,.F.);
#287=ORIENTED_EDGE('',*,*,#220,.F.);
#288=ORIENTED_EDGE('',*,*,#185,.T.);
#289=ORIENTED_EDGE('',*,*,#221,.F.);
#290=ORIENTED_EDGE('',*,*,#220,.T.);
#291=ORIENTED_EDGE('',*,*,#190,.F.);
#292=ORIENTED_EDGE('',*,*,#183,.T.);
#293=ORIENTED_EDGE('',*,*,#196,.F.);
#294=ORIENTED_EDGE('',*,*,#222,.F.);
#295=ORIENTED_EDGE('',*,*,#223,.T.);
#296=ORIENTED_EDGE('',*,*,#224,.T.);
#297=ORIENTED_EDGE('',*,*,#222,.T.);
#298=ORIENTED_EDGE('',*,*,#195,.F.);
#299=ORIENTED_EDGE('',*,*,#213,.F.);
#300=ORIENTED_EDGE('',*,*,#180,.T.);
#301=ORIENTED_EDGE('',*,*,#223,.F.);
#302=ORIENTED_EDGE('',*,*,#224,.F.);
#303=ORIENTED_EDGE('',*,*,#212,.T.);
#304=ORIENTED_EDGE('',*,*,#215,.F.);
#305=ORIENTED_EDGE('',*,*,#217,.F.);
#306=ORIENTED_EDGE('',*,*,#219,.F.);
#307=ORIENTED_EDGE('',*,*,#221,.T.);
#308=ORIENTED_EDGE('',*,*,#184,.T.);
#309=ORIENTED_EDGE('',*,*,#188,.T.);
#310=ORIENTED_EDGE('',*,*,#202,.T.);
#311=ORIENTED_EDGE('',*,*,#205,.T.);
#312=ORIENTED_EDGE('',*,*,#207,.T.);
#313=ORIENTED_EDGE('',*,*,#211,.F.);
#314=ORIENTED_EDGE('',*,*,#209,.F.);
#315=PLANE('',#354);
#316=PLANE('',#355);
#317=PLANE('',#359);
#318=PLANE('',#378);
#319=PLANE('',#381);
#320=PLANE('',#384);
#321=PLANE('',#385);
#322=PLANE('',#388);
#323=ADVANCED_FACE('',(#52),#315,.F.);
#324=ADVANCED_FACE('',(#53),#316,.F.);
#325=ADVANCED_FACE('',(#54),#43,.T.);
#326=ADVANCED_FACE('',(#55,#15,#16,#17,#18,#19),#317,.T.);
#327=ADVANCED_FACE('',(#56),#44,.F.);
#328=ADVANCED_FACE('',(#57),#45,.F.);
#329=ADVANCED_FACE('',(#58),#46,.F.);
#330=ADVANCED_FACE('',(#59),#47,.F.);
#331=ADVANCED_FACE('',(#60),#48,.F.);
#332=ADVANCED_FACE('',(#61),#318,.T.);
#333=ADVANCED_FACE('',(#62),#49,.T.);
#334=ADVANCED_FACE('',(#63),#319,.T.);
#335=ADVANCED_FACE('',(#64),#50,.T.);
#336=ADVANCED_FACE('',(#65),#320,.T.);
#337=ADVANCED_FACE('',(#66),#321,.T.);
#338=ADVANCED_FACE('',(#67),#51,.T.);
#339=ADVANCED_FACE('',(#68,#20,#21,#22,#23,#24),#322,.F.);
#340=CLOSED_SHELL('',(#323,#324,#325,#326,#327,#328,#329,#330,#331,#332,
#333,#334,#335,#336,#337,#338,#339));
#341=DERIVED_UNIT_ELEMENT(#343,1.);
#342=DERIVED_UNIT_ELEMENT(#586,-3.);
#343=(
MASS_UNIT()
NAMED_UNIT(*)
SI_UNIT(.KILO.,.GRAM.)
);
#344=DERIVED_UNIT((#341,#342));
#345=MEASURE_REPRESENTATION_ITEM('density measure',
POSITIVE_RATIO_MEASURE(7850.),#344);
#346=PROPERTY_DEFINITION_REPRESENTATION(#351,#348);
#347=PROPERTY_DEFINITION_REPRESENTATION(#352,#349);
#348=REPRESENTATION('material name',(#350),#583);
#349=REPRESENTATION('density',(#345),#583);
#350=DESCRIPTIVE_REPRESENTATION_ITEM('Steel','Steel');
#351=PROPERTY_DEFINITION('material property','material name',#593);
#352=PROPERTY_DEFINITION('material property','density of part',#593);
#353=AXIS2_PLACEMENT_3D('',#488,#389,#390);
#354=AXIS2_PLACEMENT_3D('',#489,#391,#392);
#355=AXIS2_PLACEMENT_3D('',#498,#397,#398);
#356=AXIS2_PLACEMENT_3D('',#507,#403,#404);
#357=AXIS2_PLACEMENT_3D('',#508,#405,#406);
#358=AXIS2_PLACEMENT_3D('',#509,#407,#408);
#359=AXIS2_PLACEMENT_3D('',#510,#409,#410);
#360=AXIS2_PLACEMENT_3D('',#514,#412,#413);
#361=AXIS2_PLACEMENT_3D('',#518,#415,#416);
#362=AXIS2_PLACEMENT_3D('',#522,#418,#419);
#363=AXIS2_PLACEMENT_3D('',#525,#421,#422);
#364=AXIS2_PLACEMENT_3D('',#527,#423,#424);
#365=AXIS2_PLACEMENT_3D('',#529,#425,#426);
#366=AXIS2_PLACEMENT_3D('',#531,#427,#428);
#367=AXIS2_PLACEMENT_3D('',#533,#429,#430);
#368=AXIS2_PLACEMENT_3D('',#534,#431,#432);
#369=AXIS2_PLACEMENT_3D('',#536,#433,#434);
#370=AXIS2_PLACEMENT_3D('',#538,#436,#437);
#371=AXIS2_PLACEMENT_3D('',#541,#439,#440);
#372=AXIS2_PLACEMENT_3D('',#542,#441,#442);
#373=AXIS2_PLACEMENT_3D('',#545,#444,#445);
#374=AXIS2_PLACEMENT_3D('',#546,#446,#447);
#375=AXIS2_PLACEMENT_3D('',#549,#449,#450);
#376=AXIS2_PLACEMENT_3D('',#550,#451,#452);
#377=AXIS2_PLACEMENT_3D('',#553,#454,#455);
#378=AXIS2_PLACEMENT_3D('',#554,#456,#457);
#379=AXIS2_PLACEMENT_3D('',#560,#461,#462);
#380=AXIS2_PLACEMENT_3D('',#562,#463,#464);
#381=AXIS2_PLACEMENT_3D('',#564,#466,#467);
#382=AXIS2_PLACEMENT_3D('',#568,#470,#471);
#383=AXIS2_PLACEMENT_3D('',#570,#472,#473);
#384=AXIS2_PLACEMENT_3D('',#572,#475,#476);
#385=AXIS2_PLACEMENT_3D('',#574,#478,#479);
#386=AXIS2_PLACEMENT_3D('',#578,#482,#483);
#387=AXIS2_PLACEMENT_3D('',#579,#484,#485);
#388=AXIS2_PLACEMENT_3D('',#580,#486,#487);
#389=DIRECTION('axis',(0.,0.,1.));
#390=DIRECTION('refdir',(1.,0.,0.));
#391=DIRECTION('center_axis',(-0.331081094340234,-0.943602304453774,0.));
#392=DIRECTION('ref_axis',(-0.943602304453774,0.331081094340234,0.));
#393=DIRECTION('',(0.943602304453774,-0.331081094340234,0.));
#394=DIRECTION('',(0.,0.,-1.));
#395=DIRECTION('',(-0.943602304453774,0.331081094340234,0.));
#396=DIRECTION('',(0.,0.,1.));
#397=DIRECTION('center_axis',(0.763885221333162,0.645352127623972,0.));
#398=DIRECTION('ref_axis',(0.645352127623972,-0.763885221333162,0.));
#399=DIRECTION('',(-0.645352127623972,0.763885221333162,0.));
#400=DIRECTION('',(0.,0.,-1.));
#401=DIRECTION('',(0.645352127623972,-0.763885221333162,0.));
#402=DIRECTION('',(0.,0.,-1.));
#403=DIRECTION('center_axis',(0.,0.,-1.));
#404=DIRECTION('ref_axis',(-1.,0.,0.));
#405=DIRECTION('center_axis',(0.,0.,-1.));
#406=DIRECTION('ref_axis',(-1.,0.,0.));
#407=DIRECTION('center_axis',(0.,0.,1.));
#408=DIRECTION('ref_axis',(-1.,0.,0.));
#409=DIRECTION('center_axis',(0.,0.,1.));
#410=DIRECTION('ref_axis',(1.,0.,0.));
#411=DIRECTION('',(0.67153941710071,-0.740968832866834,0.));
#412=DIRECTION('center_axis',(0.,0.,1.));
#413=DIRECTION('ref_axis',(-0.740968832866835,-0.67153941710071,0.));
#414=DIRECTION('',(1.,3.420182891759E-16,0.));
#415=DIRECTION('center_axis',(0.,0.,1.));
#416=DIRECTION('ref_axis',(-6.66133814775094E-16,-1.,0.));
#417=DIRECTION('',(0.,1.,0.));
#418=DIRECTION('center_axis',(0.,0.,1.));
#419=DIRECTION('ref_axis',(1.,-1.77635683940025E-15,0.));
#420=DIRECTION('',(-0.936634068546321,0.35030932279682,0.));
#421=DIRECTION('center_axis',(0.,0.,-1.));
#422=DIRECTION('ref_axis',(1.,0.,0.));
#423=DIRECTION('center_axis',(0.,0.,-1.));
#424=DIRECTION('ref_axis',(1.,0.,0.));
#425=DIRECTION('center_axis',(0.,0.,-1.));
#426=DIRECTION('ref_axis',(-1.,0.,0.));
#427=DIRECTION('center_axis',(0.,0.,-1.));
#428=DIRECTION('ref_axis',(-1.,0.,0.));
#429=DIRECTION('center_axis',(0.,0.,-1.));
#430=DIRECTION('ref_axis',(-1.,0.,0.));
#431=DIRECTION('center_axis',(0.,0.,-1.));
#432=DIRECTION('ref_axis',(-1.,0.,0.));
#433=DIRECTION('center_axis',(0.,0.,1.));
#434=DIRECTION('ref_axis',(-1.,0.,0.));
#435=DIRECTION('',(0.,0.,1.));
#436=DIRECTION('center_axis',(0.,0.,-1.));
#437=DIRECTION('ref_axis',(-1.,0.,0.));
#438=DIRECTION('',(0.,0.,-1.));
#439=DIRECTION('center_axis',(0.,0.,1.));
#440=DIRECTION('ref_axis',(-1.,0.,0.));
#441=DIRECTION('center_axis',(0.,0.,-1.));
#442=DIRECTION('ref_axis',(-1.,0.,0.));
#443=DIRECTION('',(0.,0.,-1.));
#444=DIRECTION('center_axis',(0.,0.,1.));
#445=DIRECTION('ref_axis',(-1.,0.,0.));
#446=DIRECTION('center_axis',(0.,0.,1.));
#447=DIRECTION('ref_axis',(1.,0.,0.));
#448=DIRECTION('',(0.,0.,-1.));
#449=DIRECTION('center_axis',(0.,0.,-1.));
#450=DIRECTION('ref_axis',(1.,0.,0.));
#451=DIRECTION('center_axis',(0.,0.,1.));
#452=DIRECTION('ref_axis',(1.,0.,0.));
#453=DIRECTION('',(0.,0.,-1.));
#454=DIRECTION('center_axis',(0.,0.,-1.));
#455=DIRECTION('ref_axis',(1.,0.,0.));
#456=DIRECTION('center_axis',(1.,0.,0.));
#457=DIRECTION('ref_axis',(0.,1.,0.));
#458=DIRECTION('',(0.,-1.,0.));
#459=DIRECTION('',(0.,0.,1.));
#460=DIRECTION('',(0.,0.,1.));
#461=DIRECTION('center_axis',(0.,0.,1.));
#462=DIRECTION('ref_axis',(-6.66133814775094E-16,-1.,0.));
#463=DIRECTION('center_axis',(0.,0.,1.));
#464=DIRECTION('ref_axis',(-6.66133814775094E-16,-1.,0.));
#465=DIRECTION('',(0.,0.,1.));
#466=DIRECTION('center_axis',(3.420182891759E-16,-1.,0.));
#467=DIRECTION('ref_axis',(1.,3.420182891759E-16,0.));
#468=DIRECTION('',(1.,3.420182891759E-16,0.));
#469=DIRECTION('',(0.,0.,1.));
#470=DIRECTION('center_axis',(0.,0.,1.));
#471=DIRECTION('ref_axis',(-0.740968832866835,-0.67153941710071,0.));
#472=DIRECTION('center_axis',(0.,0.,1.));
#473=DIRECTION('ref_axis',(-0.740968832866835,-0.67153941710071,0.));
#474=DIRECTION('',(0.,0.,1.));
#475=DIRECTION('center_axis',(-0.740968832866834,-0.67153941710071,0.));
#476=DIRECTION('ref_axis',(0.67153941710071,-0.740968832866834,0.));
#477=DIRECTION('',(-0.67153941710071,0.740968832866834,0.));
#478=DIRECTION('center_axis',(0.35030932279682,0.936634068546321,0.));
#479=DIRECTION('ref_axis',(-0.936634068546321,0.35030932279682,0.));
#480=DIRECTION('',(0.,0.,1.));
#481=DIRECTION('',(-0.936634068546321,0.35030932279682,0.));
#482=DIRECTION('center_axis',(0.,0.,1.));
#483=DIRECTION('ref_axis',(1.,-1.77635683940025E-15,0.));
#484=DIRECTION('center_axis',(0.,0.,1.));
#485=DIRECTION('ref_axis',(1.,-1.77635683940025E-15,0.));
#486=DIRECTION('center_axis',(0.,0.,1.));
#487=DIRECTION('ref_axis',(1.,0.,0.));
#488=CARTESIAN_POINT('',(0.,0.,0.));
#489=CARTESIAN_POINT('Origin',(-5.21446493491251,23.7573036227383,3.175));
#490=CARTESIAN_POINT('',(-97.5427149224932,56.1524534651308,0.));
#491=CARTESIAN_POINT('',(-5.21446493491251,23.7573036227383,0.));
#492=CARTESIAN_POINT('',(-28.0093287951077,31.7553218943647,0.));
#493=CARTESIAN_POINT('',(-97.5427149224932,56.1524534651308,3.175));
#494=CARTESIAN_POINT('',(-97.5427149224932,56.1524534651308,3.175));
#495=CARTESIAN_POINT('',(-5.21446493491251,23.7573036227383,3.175));
#496=CARTESIAN_POINT('',(-28.0093287951077,31.7553218943647,3.175));
#497=CARTESIAN_POINT('',(-5.21446493491293,23.7573036227384,1.5875));
#498=CARTESIAN_POINT('Origin',(-103.017545124082,48.2076807284454,3.175));
#499=CARTESIAN_POINT('',(-65.8649670921705,4.23121566666082,0.));
#500=CARTESIAN_POINT('',(-103.017545124082,48.2076807284454,0.));
#501=CARTESIAN_POINT('',(-88.4524607616388,30.9673986937303,0.));
#502=CARTESIAN_POINT('',(-65.8649670921705,4.23121566666082,3.175));
#503=CARTESIAN_POINT('',(-65.8649670921707,4.23121566666099,1.5875));
#504=CARTESIAN_POINT('',(-103.017545124082,48.2076807284454,3.175));
#505=CARTESIAN_POINT('',(-88.4524607616388,30.9673986937303,3.175));
#506=CARTESIAN_POINT('',(-103.017545124082,48.2076807284454,3.175));
#507=CARTESIAN_POINT('Origin',(-99.1981191293605,51.4344414990711,3.175));
#508=CARTESIAN_POINT('Origin',(-99.1981191293605,51.4344414990711,0.));
#509=CARTESIAN_POINT('Origin',(-99.1981191293605,51.4344414990711,3.175));
#510=CARTESIAN_POINT('Origin',(-54.0581191293608,30.4794414990713,3.175));
#511=CARTESIAN_POINT('',(-65.806536850841,4.16674441356751,3.175));
#512=CARTESIAN_POINT('',(-65.806536850841,4.16674441356751,3.175));
#513=CARTESIAN_POINT('',(-62.1016926865068,2.52444149907105,3.175));
#514=CARTESIAN_POINT('Origin',(-62.1016926865068,7.52444149907108,3.175));
#515=CARTESIAN_POINT('',(-6.91811912936048,2.52444149907107,3.175));
#516=CARTESIAN_POINT('',(-62.1016926865068,2.52444149907106,3.175));
#517=CARTESIAN_POINT('',(-1.91811912936048,7.52444149907107,3.175));
#518=CARTESIAN_POINT('Origin',(-6.91811912936048,7.52444149907107,3.175));
#519=CARTESIAN_POINT('',(-1.91811912936048,19.0562210967772,3.175));
#520=CARTESIAN_POINT('',(-1.91811912936048,19.0562210967772,3.175));
#521=CARTESIAN_POINT('',(-5.16657251537638,23.7393914395088,3.175));
#522=CARTESIAN_POINT('Origin',(-6.91811912936047,19.0562210967772,3.175));
#523=CARTESIAN_POINT('',(-5.16657251537638,23.7393914395088,3.175));
#524=CARTESIAN_POINT('',(-14.4681191293605,12.5244414990711,3.175));
#525=CARTESIAN_POINT('Origin',(-11.9181191293605,12.5244414990711,3.175));
#526=CARTESIAN_POINT('',(-44.6681191293605,12.5244414990711,3.175));
#527=CARTESIAN_POINT('Origin',(-42.1181191293605,12.5244414990711,3.175));
#528=CARTESIAN_POINT('',(-35.5181191293605,27.5244414990711,3.175));
#529=CARTESIAN_POINT('Origin',(-37.1181191293605,27.5244414990711,3.175));
#530=CARTESIAN_POINT('',(-50.5181191293605,27.5244414990711,3.175));
#531=CARTESIAN_POINT('Origin',(-52.1181191293605,27.5244414990711,3.175));
#532=CARTESIAN_POINT('',(-97.6481191293605,51.4344414990711,3.175));
#533=CARTESIAN_POINT('Origin',(-99.1981191293605,51.4344414990711,3.175));
#534=CARTESIAN_POINT('Origin',(-99.1981191293605,51.4344414990711,3.175));
#535=CARTESIAN_POINT('',(-97.6481191293605,51.4344414990711,0.));
#536=CARTESIAN_POINT('Origin',(-99.1981191293605,51.4344414990711,0.));
#537=CARTESIAN_POINT('',(-97.6481191293605,51.4344414990711,3.175));
#538=CARTESIAN_POINT('Origin',(-52.1181191293605,27.5244414990711,3.175));
#539=CARTESIAN_POINT('',(-50.5181191293605,27.5244414990711,0.));
#540=CARTESIAN_POINT('',(-50.5181191293605,27.5244414990711,3.175));
#541=CARTESIAN_POINT('Origin',(-52.1181191293605,27.5244414990711,0.));
#542=CARTESIAN_POINT('Origin',(-37.1181191293605,27.5244414990711,3.175));
#543=CARTESIAN_POINT('',(-35.5181191293605,27.5244414990711,0.));
#544=CARTESIAN_POINT('',(-35.5181191293605,27.5244414990711,3.175));
#545=CARTESIAN_POINT('Origin',(-37.1181191293605,27.5244414990711,0.));
#546=CARTESIAN_POINT('Origin',(-11.9181191293605,12.5244414990711,0.));
#547=CARTESIAN_POINT('',(-14.4681191293605,12.5244414990711,0.));
#548=CARTESIAN_POINT('',(-14.4681191293605,12.5244414990711,0.));
#549=CARTESIAN_POINT('Origin',(-11.9181191293605,12.5244414990711,0.));
#550=CARTESIAN_POINT('Origin',(-42.1181191293605,12.5244414990711,0.));
#551=CARTESIAN_POINT('',(-44.6681191293605,12.5244414990711,0.));
#552=CARTESIAN_POINT('',(-44.6681191293605,12.5244414990711,0.));
#553=CARTESIAN_POINT('Origin',(-42.1181191293605,12.5244414990711,0.));
#554=CARTESIAN_POINT('Origin',(-1.91811912936048,7.52444149907107,0.));
#555=CARTESIAN_POINT('',(-1.91811912936048,19.0562210967772,0.));
#556=CARTESIAN_POINT('',(-1.91811912936048,7.52444149907107,0.));
#557=CARTESIAN_POINT('',(-1.91811912936048,19.0562210967772,0.));
#558=CARTESIAN_POINT('',(-1.91811912936048,19.0562210967772,0.));
#559=CARTESIAN_POINT('',(-1.91811912936048,7.52444149907107,0.));
#560=CARTESIAN_POINT('Origin',(-6.91811912936048,7.52444149907107,0.));
#561=CARTESIAN_POINT('',(-6.91811912936048,2.52444149907107,0.));
#562=CARTESIAN_POINT('Origin',(-6.91811912936048,7.52444149907107,0.));
#563=CARTESIAN_POINT('',(-6.91811912936048,2.52444149907107,0.));
#564=CARTESIAN_POINT('Origin',(-62.1016926865068,2.52444149907106,0.));
#565=CARTESIAN_POINT('',(-62.1016926865068,2.52444149907105,0.));
#566=CARTESIAN_POINT('',(-62.1016926865068,2.52444149907106,0.));
#567=CARTESIAN_POINT('',(-62.1016926865068,2.52444149907105,0.));
#568=CARTESIAN_POINT('Origin',(-62.1016926865068,7.52444149907108,0.));
#569=CARTESIAN_POINT('',(-65.806536850841,4.16674441356751,0.));
#570=CARTESIAN_POINT('Origin',(-62.1016926865068,7.52444149907108,0.));
#571=CARTESIAN_POINT('',(-65.806536850841,4.16674441356751,0.));
#572=CARTESIAN_POINT('Origin',(-104.384900959429,46.7336655793657,0.));
#573=CARTESIAN_POINT('',(-65.806536850841,4.16674441356751,0.));
#574=CARTESIAN_POINT('Origin',(-5.16657251537638,23.7393914395088,0.));
#575=CARTESIAN_POINT('',(-5.16657251537638,23.7393914395088,0.));
#576=CARTESIAN_POINT('',(-5.16657251537638,23.7393914395088,0.));
#577=CARTESIAN_POINT('',(-5.16657251537638,23.7393914395088,0.));
#578=CARTESIAN_POINT('Origin',(-6.91811912936047,19.0562210967772,0.));
#579=CARTESIAN_POINT('Origin',(-6.91811912936047,19.0562210967772,0.));
#580=CARTESIAN_POINT('Origin',(-54.0581191293608,30.4794414990713,0.));
#581=UNCERTAINTY_MEASURE_WITH_UNIT(LENGTH_MEASURE(0.01),#585,
'DISTANCE_ACCURACY_VALUE',
'Maximum model space distance between geometric entities at asserted c
onnectivities');
#582=UNCERTAINTY_MEASURE_WITH_UNIT(LENGTH_MEASURE(0.01),#585,
'DISTANCE_ACCURACY_VALUE',
'Maximum model space distance between geometric entities at asserted c
onnectivities');
#583=(
GEOMETRIC_REPRESENTATION_CONTEXT(3)
GLOBAL_UNCERTAINTY_ASSIGNED_CONTEXT((#581))
GLOBAL_UNIT_ASSIGNED_CONTEXT((#585,#587,#588))
REPRESENTATION_CONTEXT('','3D')
);
#584=(
GEOMETRIC_REPRESENTATION_CONTEXT(3)
GLOBAL_UNCERTAINTY_ASSIGNED_CONTEXT((#582))
GLOBAL_UNIT_ASSIGNED_CONTEXT((#585,#587,#588))
REPRESENTATION_CONTEXT('','3D')
);
#585=(
LENGTH_UNIT()
NAMED_UNIT(*)
SI_UNIT(.MILLI.,.METRE.)
);
#586=(
LENGTH_UNIT()
NAMED_UNIT(*)
SI_UNIT($,.METRE.)
);
#587=(
NAMED_UNIT(*)
PLANE_ANGLE_UNIT()
SI_UNIT($,.RADIAN.)
);
#588=(
NAMED_UNIT(*)
SI_UNIT($,.STERADIAN.)
SOLID_ANGLE_UNIT()
);
#589=SHAPE_DEFINITION_REPRESENTATION(#590,#591);
#590=PRODUCT_DEFINITION_SHAPE('',$,#593);
#591=SHAPE_REPRESENTATION('',(#353),#583);
#592=PRODUCT_DEFINITION_CONTEXT('part definition',#597,'design');
#593=PRODUCT_DEFINITION('(Unsaved)','(Unsaved)',#594,#592);
#594=PRODUCT_DEFINITION_FORMATION('',$,#599);
#595=PRODUCT_RELATED_PRODUCT_CATEGORY('(Unsaved)','(Unsaved)',(#599));
#596=APPLICATION_PROTOCOL_DEFINITION('international standard',
'automotive_design',2009,#597);
#597=APPLICATION_CONTEXT(
'Core Data for Automotive Mechanical Design Process');
#598=PRODUCT_CONTEXT('part definition',#597,'mechanical');
#599=PRODUCT('(Unsaved)','(Unsaved)',$,(#598));
#600=PRESENTATION_STYLE_ASSIGNMENT((#601));
#601=SURFACE_STYLE_USAGE(.BOTH.,#602);
#602=SURFACE_SIDE_STYLE('',(#603));
#603=SURFACE_STYLE_FILL_AREA(#604);
#604=FILL_AREA_STYLE('Steel - Satin',(#605));
#605=FILL_AREA_STYLE_COLOUR('Steel - Satin',#606);
#606=COLOUR_RGB('Steel - Satin',0.627450980392157,0.627450980392157,0.627450980392157);
ENDSEC;
END-ISO-10303-21;
